<svg width="216" height="101" viewBox="0 0 216 101" fill="none" xmlns="http://www.w3.org/2000/svg">
<g clip-path="url(#clip0_52_234)">
<path fill-rule="evenodd" clip-rule="evenodd" d="M111.941 37.3677C112.077 36.6883 111.886 36.0089 111.451 35.4926L72.453 5.54389C72.0997 5.38083 71.7192 5.35365 71.3387 5.40801C70.7408 5.48954 70.2788 5.97872 70.2245 6.5766C70.2245 7.17449 70.4691 7.71802 70.8496 8.18003L89.6286 23.1272C90.308 23.6435 90.7972 24.3773 90.9603 25.1926C91.1505 25.9807 90.9874 26.8504 90.5254 27.5298L73.1596 51.1191C72.8878 51.4996 72.7519 51.9888 72.8063 52.478C72.9422 52.9671 73.3498 53.3204 73.839 53.402L99.6024 53.3204C101.124 52.8584 102.456 51.8801 103.353 50.5756L111.506 39.8952C111.75 39.0799 111.913 38.2374 111.968 37.3949L111.941 37.3677Z" fill="black"/>
<path d="M73.8119 53.565C73.2684 53.4563 72.8064 53.0486 72.6433 52.5051C72.589 51.9616 72.7248 51.418 73.0238 51.0104L90.3897 27.421C90.8245 26.796 90.9875 26.0079 90.7973 25.2469C90.6071 24.4588 90.1722 23.7522 89.52 23.2902L70.7138 8.34304C70.3333 7.85386 70.0887 7.25597 70.0615 6.63091C70.1431 5.92432 70.6594 5.38078 71.3388 5.27208C71.7465 5.19055 72.1813 5.2449 72.5618 5.40796H72.589L111.615 35.3838C112.104 35.9545 112.294 36.6883 112.158 37.422C112.104 38.2917 111.941 39.1342 111.696 39.9495V40.0038L103.516 50.6842C102.619 52.0159 101.233 53.0214 99.6841 53.5106H99.6297L73.8391 53.5921L73.8119 53.565Z" fill="#05000B"/>
<path fill-rule="evenodd" clip-rule="evenodd" d="M99.6024 1.65729C98.4338 0.841988 97.1022 0.271278 95.689 -0.000488281H73.4042C72.6976 0.271278 72.154 0.841988 71.9366 1.54858C71.8279 2.09211 71.991 2.66282 72.3443 3.09765L121.616 40.683C123.029 41.7157 124.632 42.4223 126.371 42.7212H151.782C152.135 42.7212 152.407 42.4494 152.461 42.0961C152.461 41.5798 152.189 41.0906 151.727 40.8188L99.6024 1.65729Z" fill="#E30613"/>
<path fill-rule="evenodd" clip-rule="evenodd" d="M171.838 71.6646H179.067C186.377 72.2624 186.242 77.3445 186.242 77.3445V88.7858C185.155 94.4929 178.496 94.2212 178.496 94.2212H162.082C154.173 94.2755 154.526 88.7043 154.526 88.7043V83.3777C155.124 79.0022 161.049 78.4315 161.049 78.4315H182.355C181.676 74.817 178.714 74.9529 178.714 74.9529H172.083C172.083 74.9529 170.724 75.0073 170.724 73.4582C170.724 71.9091 171.865 71.6917 171.865 71.6917L171.838 71.6646ZM182.382 81.883L161.13 81.8286C158.25 82.2091 158.331 84.2473 158.331 84.2473V88.4869C159.146 90.8784 162.027 90.9056 162.027 90.9056H178.958C182.084 90.6067 182.382 87.1824 182.382 87.1824V81.883ZM182.382 81.883L161.13 81.8286C158.25 82.2091 158.331 84.2473 158.331 84.2473V88.4869C159.146 90.8784 162.027 90.9056 162.027 90.9056H178.958C182.084 90.6067 182.382 87.1824 182.382 87.1824V81.883ZM171.838 71.6646H179.067C186.377 72.2624 186.242 77.3445 186.242 77.3445V88.7858C185.155 94.4929 178.496 94.2212 178.496 94.2212H162.082C154.173 94.2755 154.526 88.7043 154.526 88.7043V83.3777C155.124 79.0022 161.049 78.4315 161.049 78.4315H182.355C181.676 74.817 178.714 74.9529 178.714 74.9529H172.083C172.083 74.9529 170.724 75.0073 170.724 73.4582C170.724 71.9091 171.865 71.6917 171.865 71.6917L171.838 71.6646ZM182.382 81.883L161.13 81.8286C158.25 82.2091 158.331 84.2473 158.331 84.2473V88.4869C159.146 90.8784 162.027 90.9056 162.027 90.9056H178.958C182.084 90.6067 182.382 87.1824 182.382 87.1824V81.883ZM171.838 71.6646H179.067C186.377 72.2624 186.242 77.3445 186.242 77.3445V88.7858C185.155 94.4929 178.496 94.2212 178.496 94.2212H162.082C154.173 94.2755 154.526 88.7043 154.526 88.7043V83.3777C155.124 79.0022 161.049 78.4315 161.049 78.4315H182.355C181.676 74.817 178.714 74.9529 178.714 74.9529H172.083C172.083 74.9529 170.724 75.0073 170.724 73.4582C170.724 71.9091 171.865 71.6917 171.865 71.6917L171.838 71.6646Z" fill="#05000B"/>
<path fill-rule="evenodd" clip-rule="evenodd" d="M109.957 76.8824C109.957 76.8824 109.902 75.1975 111.859 73.5125C114.006 71.6917 117.159 71.746 117.159 71.746H133.138C139.28 72.4526 139.905 77.1814 139.905 77.1814V88.4868C139.498 92.8079 133.628 94.1396 133.628 94.1396H116.86C116.86 94.1396 115.039 94.2483 112.593 92.5905C110.147 90.9599 109.984 88.6499 109.984 88.6499V76.8552L109.957 76.8824ZM113.979 77.1814V88.4053C113.979 88.4053 114.142 90.2533 117.349 90.9599H132.459C132.459 90.9599 135.557 90.362 135.775 88.2966V77.4259C135.775 77.4259 135.503 74.9529 132.54 74.817H117.349C117.349 74.817 116.234 74.817 115.175 75.6595C114.522 76.1758 113.979 77.1814 113.979 77.1814ZM113.979 77.1814V88.4053C113.979 88.4053 114.142 90.2533 117.349 90.9599H132.459C132.459 90.9599 135.557 90.362 135.775 88.2966V77.4259C135.775 77.4259 135.503 74.9529 132.54 74.817H117.349C117.349 74.817 116.234 74.817 115.175 75.6595C114.522 76.1758 113.979 77.1814 113.979 77.1814ZM109.957 76.8824C109.957 76.8824 109.902 75.1975 111.859 73.5125C114.006 71.6917 117.159 71.746 117.159 71.746H133.138C139.28 72.4526 139.905 77.1814 139.905 77.1814V88.4868C139.498 92.8079 133.628 94.1396 133.628 94.1396H116.86C116.86 94.1396 115.039 94.2483 112.593 92.5905C110.147 90.9599 109.984 88.6499 109.984 88.6499V76.8552L109.957 76.8824ZM113.979 77.1814V88.4053C113.979 88.4053 114.142 90.2533 117.349 90.9599H132.459C132.459 90.9599 135.557 90.362 135.775 88.2966V77.4259C135.775 77.4259 135.503 74.9529 132.54 74.817H117.349C117.349 74.817 116.234 74.817 115.175 75.6595C114.522 76.1758 113.979 77.1814 113.979 77.1814ZM109.957 76.8824C109.957 76.8824 109.902 75.1975 111.859 73.5125C114.006 71.6917 117.159 71.746 117.159 71.746H133.138C139.28 72.4526 139.905 77.1814 139.905 77.1814V88.4868C139.498 92.8079 133.628 94.1396 133.628 94.1396H116.86C116.86 94.1396 115.039 94.2483 112.593 92.5905C110.147 90.9599 109.984 88.6499 109.984 88.6499V76.8552L109.957 76.8824Z" fill="#05000B"/>
<path fill-rule="evenodd" clip-rule="evenodd" d="M22.0676 84.8184L22.1219 88.297C23.6167 91.2049 26.6061 90.9875 26.6061 90.9875H33.7536C33.7536 90.9875 34.9221 91.2864 34.9221 92.5909C34.9221 93.8954 33.7264 94.1671 33.7264 94.1671H26.0082C17.8824 93.1344 18.1813 88.5416 18.1813 88.5416V77.3448C18.1813 72.5889 26.3072 71.5562 26.3072 71.5562H41.6076C47.4506 71.5562 48.2387 76.2305 48.2387 76.2305V83.9759C47.9398 84.4922 46.9071 84.8184 46.9071 84.8184H22.0676ZM22.0948 81.2854H44.3524V77.372C44.3524 77.372 44.2981 75.3337 41.5533 74.763H26.9322C26.9322 74.763 22.747 75.1163 22.1219 77.535V81.2854H22.0948ZM22.0948 81.2854H44.3524V77.372C44.3524 77.372 44.2981 75.3337 41.5533 74.763H26.9322C26.9322 74.763 22.747 75.1163 22.1219 77.535V81.2854H22.0948ZM22.0676 84.8184L22.1219 88.297C23.6167 91.2049 26.6061 90.9875 26.6061 90.9875H33.7536C33.7536 90.9875 34.9221 91.2864 34.9221 92.5909C34.9221 93.8954 33.7264 94.1671 33.7264 94.1671H26.0082C17.8824 93.1344 18.1813 88.5416 18.1813 88.5416V77.3448C18.1813 72.5889 26.3072 71.5562 26.3072 71.5562H41.6076C47.4506 71.5562 48.2387 76.2305 48.2387 76.2305V83.9759C47.9398 84.4922 46.9071 84.8184 46.9071 84.8184H22.0676ZM22.0948 81.2854H44.3524V77.372C44.3524 77.372 44.2981 75.3337 41.5533 74.763H26.9322C26.9322 74.763 22.747 75.1163 22.1219 77.535V81.2854H22.0948ZM22.0676 84.8184L22.1219 88.297C23.6167 91.2049 26.6061 90.9875 26.6061 90.9875H33.7536C33.7536 90.9875 34.9221 91.2864 34.9221 92.5909C34.9221 93.8954 33.7264 94.1671 33.7264 94.1671H26.0082C17.8824 93.1344 18.1813 88.5416 18.1813 88.5416V77.3448C18.1813 72.5889 26.3072 71.5562 26.3072 71.5562H41.6076C47.4506 71.5562 48.2387 76.2305 48.2387 76.2305V83.9759C47.9398 84.4922 46.9071 84.8184 46.9071 84.8184H22.0676Z" fill="#05000B"/>
<path fill-rule="evenodd" clip-rule="evenodd" d="M3.91344 74.7627V93.27C3.91344 93.27 4.59285 94.7647 5.89733 94.7647C7.20181 94.7647 7.96276 93.27 7.96276 93.27V74.8442H16.8223C16.8223 74.8442 18.0996 74.6268 18.0996 73.2679C18.0996 71.9091 16.8767 71.6373 16.8767 71.6373H7.88123V65.74C7.88123 65.74 7.74534 64.2725 6.03322 64.2725C4.32109 64.2725 3.96779 65.6585 3.96779 65.6585V71.5558H1.19577C1.19577 71.5558 0 71.8276 0 73.2679C0 74.4094 1.33166 74.7627 1.33166 74.7627H3.91344Z" fill="#05000B"/>
<path fill-rule="evenodd" clip-rule="evenodd" d="M50.1409 65.5227V93.1885C50.1409 93.1885 50.8203 94.6017 52.2063 94.6017C53.5923 94.6017 54.163 93.1885 54.163 93.1885V84.7094L73.0236 94.6017C73.0236 94.6017 74.4911 94.8191 75.0075 93.5962C75.5239 92.3732 74.926 91.4221 74.926 91.4221L57.2068 82.4266L74.3009 74.3008C74.3009 74.3008 75.5782 73.5398 74.926 72.181C74.3009 70.8222 73.1867 71.257 73.1867 71.257L54.2717 80.3612V65.6042C54.2717 65.6042 53.8097 64.1639 52.1519 64.1911C50.4942 64.2182 50.1409 65.5771 50.1409 65.5771V65.5227Z" fill="#05000B"/>
<path fill-rule="evenodd" clip-rule="evenodd" d="M77.4264 93.1344V76.3935C77.4264 76.3935 77.2361 72.6703 84.4651 71.7463H100.336C100.336 71.7463 107.348 72.3714 107.348 76.8827V92.9169C107.348 92.9169 107.049 94.5747 105.554 94.5747C104.059 94.5747 103.244 93.0257 103.244 93.0257V77.1545C103.244 77.1545 102.755 75.1162 100.146 74.8445H84.7369C84.7369 74.8445 81.4757 75.1706 81.4757 77.1001V92.9713C81.4757 92.9713 80.9593 94.5475 79.3016 94.5475C77.6438 94.5475 77.4264 93.1072 77.4264 93.1072V93.1344Z" fill="#05000B"/>
<path fill-rule="evenodd" clip-rule="evenodd" d="M192.22 76.6109C192.22 76.6109 192.981 75.0074 194.558 74.8444H202.765C202.765 74.8444 203.988 74.3824 203.988 73.1866C203.988 71.9908 202.792 71.6104 202.792 71.6104H193.688C193.688 71.6104 188.986 72.5344 188.226 75.8499V79.4916C188.226 79.4916 188.66 83.9757 195.264 84.1931H208.662C208.662 84.1931 211.706 84.7638 211.733 86.177V88.7045C211.733 88.7045 210.755 90.8786 208.934 90.8786H202.303V89.3295C202.303 89.3295 202.086 88.2153 200.672 88.2153C199.259 88.2153 199.259 89.4382 199.259 89.4382V90.8786H189.095C189.095 90.8786 187.954 91.3406 187.954 92.7266C187.954 94.1126 189.34 94.2213 189.34 94.2213H199.259V99.0044C199.259 99.0044 199.585 100.255 200.808 100.255C202.031 100.255 202.33 98.9772 202.33 98.9772V94.2213H209.586C209.586 94.2213 215.293 94.1126 215.973 89.4382V85.6607C215.973 85.6607 215.674 81.8288 209.505 81.0678H196.161C196.161 81.0678 192.737 81.3396 192.193 79.0024V76.6652L192.22 76.6109Z" fill="#05000B"/>
<path fill-rule="evenodd" clip-rule="evenodd" d="M145.694 74.763V93.2431C145.694 93.2431 146.373 94.7378 147.678 94.7378C148.982 94.7378 149.743 93.2431 149.743 93.2431V74.8173H158.603C158.603 74.8173 159.88 74.5999 159.88 73.2411C159.88 71.8822 158.657 71.6105 158.657 71.6105H149.662V65.7131C149.662 65.7131 149.526 64.2456 147.814 64.2456C146.102 64.2456 145.748 65.6316 145.748 65.6316V71.529H142.976C142.976 71.529 141.808 71.8007 141.781 73.2411C141.781 74.3825 143.112 74.7358 143.112 74.7358H145.694V74.763Z" fill="#05000B"/>
</g>
<defs>
<clipPath id="clip0_52_234">
<rect width="216" height="100.255" fill="white"/>
</clipPath>
</defs>
</svg>
