<svg width="200" height="34" viewBox="0 0 200 34" fill="none" xmlns="http://www.w3.org/2000/svg">
<path fill-rule="evenodd" clip-rule="evenodd" d="M159.129 6.92114H165.823C172.593 7.47481 172.467 12.181 172.467 12.181V22.7762C171.461 28.0612 165.295 27.8095 165.295 27.8095H150.094C142.771 27.8599 143.098 22.7007 143.098 22.7007V17.768C143.652 13.7162 149.138 13.1877 149.138 13.1877H168.869C168.239 9.84048 165.496 9.96631 165.496 9.96631H159.356C159.356 9.96631 158.097 10.0166 158.097 8.58214C158.097 7.14764 159.154 6.9463 159.154 6.9463L159.129 6.92114ZM168.894 16.3838L149.213 16.3335C146.546 16.6858 146.621 18.5733 146.621 18.5733V22.4993C147.376 24.714 150.044 24.7392 150.044 24.7392H165.723C168.617 24.4623 168.894 21.2913 168.894 21.2913V16.3838ZM168.894 16.3838L149.213 16.3335C146.546 16.6858 146.621 18.5733 146.621 18.5733V22.4993C147.376 24.714 150.044 24.7392 150.044 24.7392H165.723C168.617 24.4623 168.894 21.2913 168.894 21.2913V16.3838ZM159.129 6.92114H165.823C172.593 7.47481 172.467 12.181 172.467 12.181V22.7762C171.461 28.0612 165.295 27.8095 165.295 27.8095H150.094C142.771 27.8599 143.098 22.7007 143.098 22.7007V17.768C143.652 13.7162 149.138 13.1877 149.138 13.1877H168.869C168.239 9.84048 165.496 9.96631 165.496 9.96631H159.356C159.356 9.96631 158.097 10.0166 158.097 8.58214C158.097 7.14764 159.154 6.9463 159.154 6.9463L159.129 6.92114ZM168.894 16.3838L149.213 16.3335C146.546 16.6858 146.621 18.5733 146.621 18.5733V22.4993C147.376 24.714 150.044 24.7392 150.044 24.7392H165.723C168.617 24.4623 168.894 21.2913 168.894 21.2913V16.3838ZM159.129 6.92114H165.823C172.593 7.47481 172.467 12.181 172.467 12.181V22.7762C171.461 28.0612 165.295 27.8095 165.295 27.8095H150.094C142.771 27.8599 143.098 22.7007 143.098 22.7007V17.768C143.652 13.7162 149.138 13.1877 149.138 13.1877H168.869C168.239 9.84048 165.496 9.96631 165.496 9.96631H159.356C159.356 9.96631 158.097 10.0166 158.097 8.58214C158.097 7.14764 159.154 6.9463 159.154 6.9463L159.129 6.92114Z" fill="#000"/>
<path fill-rule="evenodd" clip-rule="evenodd" d="M101.825 11.7533C101.825 11.7533 101.774 10.1929 103.586 8.63258C105.574 6.94641 108.494 6.99674 108.494 6.99674H123.292C128.979 7.65108 129.558 12.0301 129.558 12.0301V22.4994C129.181 26.501 123.745 27.7341 123.745 27.7341H108.217C108.217 27.7341 106.531 27.8348 104.266 26.2996C102.001 24.7896 101.85 22.6504 101.85 22.6504V11.7281L101.825 11.7533ZM105.549 12.0301V22.4239C105.549 22.4239 105.7 24.1353 108.67 24.7896H122.663C122.663 24.7896 125.532 24.2359 125.733 22.3233V12.2566C125.733 12.2566 125.481 9.96641 122.738 9.84058H108.67C108.67 9.84058 107.638 9.84058 106.657 10.6207C106.053 11.0989 105.549 12.0301 105.549 12.0301ZM105.549 12.0301V22.4239C105.549 22.4239 105.7 24.1353 108.67 24.7896H122.663C122.663 24.7896 125.532 24.2359 125.733 22.3233V12.2566C125.733 12.2566 125.481 9.96641 122.738 9.84058H108.67C108.67 9.84058 107.638 9.84058 106.657 10.6207C106.053 11.0989 105.549 12.0301 105.549 12.0301ZM101.825 11.7533C101.825 11.7533 101.774 10.1929 103.586 8.63258C105.574 6.94641 108.494 6.99674 108.494 6.99674H123.292C128.979 7.65108 129.558 12.0301 129.558 12.0301V22.4994C129.181 26.501 123.745 27.7341 123.745 27.7341H108.217C108.217 27.7341 106.531 27.8348 104.266 26.2996C102.001 24.7896 101.85 22.6504 101.85 22.6504V11.7281L101.825 11.7533ZM105.549 12.0301V22.4239C105.549 22.4239 105.7 24.1353 108.67 24.7896H122.663C122.663 24.7896 125.532 24.2359 125.733 22.3233V12.2566C125.733 12.2566 125.481 9.96641 122.738 9.84058H108.67C108.67 9.84058 107.638 9.84058 106.657 10.6207C106.053 11.0989 105.549 12.0301 105.549 12.0301ZM101.825 11.7533C101.825 11.7533 101.774 10.1929 103.586 8.63258C105.574 6.94641 108.494 6.99674 108.494 6.99674H123.292C128.979 7.65108 129.558 12.0301 129.558 12.0301V22.4994C129.181 26.501 123.745 27.7341 123.745 27.7341H108.217C108.217 27.7341 106.531 27.8348 104.266 26.2996C102.001 24.7896 101.85 22.6504 101.85 22.6504V11.7281L101.825 11.7533Z" fill="#000"/>
<path fill-rule="evenodd" clip-rule="evenodd" d="M20.4356 19.1019L20.4859 22.3233C21.8701 25.0161 24.6384 24.8148 24.6384 24.8148H31.2573C31.2573 24.8148 32.3395 25.0916 32.3395 26.2996C32.3395 27.5076 31.2321 27.7593 31.2321 27.7593H24.0848C16.5599 26.8029 16.8367 22.5498 16.8367 22.5498V12.1811C16.8367 7.7769 24.3616 6.82056 24.3616 6.82056H38.5305C43.9413 6.82056 44.6711 11.1492 44.6711 11.1492V18.3218C44.3943 18.7999 43.438 19.1019 43.438 19.1019H20.4356ZM20.4608 15.8302H41.0723V12.2062C41.0723 12.2062 41.022 10.3187 38.4801 9.79023H24.9404C24.9404 9.79023 21.0648 10.1174 20.4859 12.3572V15.8302H20.4608ZM20.4608 15.8302H41.0723V12.2062C41.0723 12.2062 41.022 10.3187 38.4801 9.79023H24.9404C24.9404 9.79023 21.0648 10.1174 20.4859 12.3572V15.8302H20.4608ZM20.4356 19.1019L20.4859 22.3233C21.8701 25.0161 24.6384 24.8148 24.6384 24.8148H31.2573C31.2573 24.8148 32.3395 25.0916 32.3395 26.2996C32.3395 27.5076 31.2321 27.7593 31.2321 27.7593H24.0848C16.5599 26.8029 16.8367 22.5498 16.8367 22.5498V12.1811C16.8367 7.7769 24.3616 6.82056 24.3616 6.82056H38.5305C43.9413 6.82056 44.6711 11.1492 44.6711 11.1492V18.3218C44.3943 18.7999 43.438 19.1019 43.438 19.1019H20.4356ZM20.4608 15.8302H41.0723V12.2062C41.0723 12.2062 41.022 10.3187 38.4801 9.79023H24.9404C24.9404 9.79023 21.0648 10.1174 20.4859 12.3572V15.8302H20.4608ZM20.4356 19.1019L20.4859 22.3233C21.8701 25.0161 24.6384 24.8148 24.6384 24.8148H31.2573C31.2573 24.8148 32.3395 25.0916 32.3395 26.2996C32.3395 27.5076 31.2321 27.7593 31.2321 27.7593H24.0848C16.5599 26.8029 16.8367 22.5498 16.8367 22.5498V12.1811C16.8367 7.7769 24.3616 6.82056 24.3616 6.82056H38.5305C43.9413 6.82056 44.6711 11.1492 44.6711 11.1492V18.3218C44.3943 18.7999 43.438 19.1019 43.438 19.1019H20.4356Z" fill="#000"/>
<path fill-rule="evenodd" clip-rule="evenodd" d="M3.62401 9.79004V26.9286C3.62401 26.9286 4.25318 28.3128 5.46118 28.3128C6.66918 28.3128 7.37385 26.9286 7.37385 26.9286V9.86554H15.5782C15.5782 9.86554 16.761 9.66421 16.761 8.40587C16.761 7.14754 15.6285 6.89587 15.6285 6.89587H7.29835V1.43469C7.29835 1.43469 7.17252 0.0756836 5.58701 0.0756836C4.00151 0.0756836 3.67434 1.35919 3.67434 1.35919V6.82036H1.10734C1.10734 6.82036 0 7.07203 0 8.40587C0 9.46287 1.23317 9.79004 1.23317 9.79004H3.62401Z" fill="#000"/>
<path fill-rule="evenodd" clip-rule="evenodd" d="M46.4326 1.23352V26.8532C46.4326 26.8532 47.0618 28.1619 48.3453 28.1619C49.6288 28.1619 50.1573 26.8532 50.1573 26.8532V19.0012L67.623 28.1619C67.623 28.1619 68.982 28.3633 69.4602 27.2307C69.9383 26.0982 69.3847 25.2174 69.3847 25.2174L52.976 16.8872L68.8058 9.36237C68.8058 9.36237 69.9887 8.65771 69.3847 7.39937C68.8058 6.14104 67.774 6.5437 67.774 6.5437L50.258 14.9746V1.30902C50.258 1.30902 49.8301 -0.024815 48.295 0.000351706C46.7598 0.0255184 46.4326 1.28386 46.4326 1.28386V1.23352Z" fill="#000"/>
<path fill-rule="evenodd" clip-rule="evenodd" d="M71.7001 26.8028V11.3001C71.7001 11.3001 71.524 7.85225 78.2183 6.99658H92.9157C92.9157 6.99658 99.4087 7.57542 99.4087 11.7531V26.6015C99.4087 26.6015 99.1319 28.1366 97.7477 28.1366C96.3635 28.1366 95.6085 26.7021 95.6085 26.7021V12.0048C95.6085 12.0048 95.1555 10.1173 92.7395 9.86559H78.47C78.47 9.86559 75.45 10.1676 75.45 11.9544V26.6518C75.45 26.6518 74.9718 28.1115 73.4367 28.1115C71.9015 28.1115 71.7001 26.7776 71.7001 26.7776V26.8028Z" fill="#000"/>
<path fill-rule="evenodd" clip-rule="evenodd" d="M178.004 11.5013C178.004 11.5013 178.709 10.0164 180.169 9.86544H187.769C187.769 9.86544 188.902 9.43761 188.902 8.33027C188.902 7.22294 187.794 6.87061 187.794 6.87061H179.363C179.363 6.87061 175.01 7.72628 174.305 10.7966V14.169C174.305 14.169 174.708 18.3215 180.823 18.5228H193.23C193.23 18.5228 196.049 19.0513 196.074 20.36V22.7005C196.074 22.7005 195.168 24.7138 193.482 24.7138H187.341V23.2793C187.341 23.2793 187.14 22.2475 185.831 22.2475C184.523 22.2475 184.523 23.38 184.523 23.38V24.7138H175.11C175.11 24.7138 174.053 25.1417 174.053 26.4252C174.053 27.7087 175.337 27.8093 175.337 27.8093H184.523V32.2387C184.523 32.2387 184.825 33.3963 185.957 33.3963C187.09 33.3963 187.366 32.2135 187.366 32.2135V27.8093H194.086C194.086 27.8093 199.371 27.7087 200 23.38V19.8818C200 19.8818 199.723 16.3333 194.01 15.6286H181.654C181.654 15.6286 178.483 15.8803 177.979 13.716V11.5516L178.004 11.5013Z" fill="#000"/>
<path fill-rule="evenodd" clip-rule="evenodd" d="M134.919 9.79006V26.9034C134.919 26.9034 135.548 28.2876 136.756 28.2876C137.964 28.2876 138.669 26.9034 138.669 26.9034V9.84039H146.873C146.873 9.84039 148.056 9.63906 148.056 8.38072C148.056 7.12239 146.923 6.87072 146.923 6.87072H138.593V1.40954C138.593 1.40954 138.467 0.0505371 136.882 0.0505371C135.296 0.0505371 134.969 1.33404 134.969 1.33404V6.79522H132.402C132.402 6.79522 131.32 7.04689 131.295 8.38072C131.295 9.43773 132.528 9.76489 132.528 9.76489H134.919V9.79006Z" fill="#000"/>
</svg>
