<?xml version="1.0" standalone="no"?>
<!DOCTYPE svg PUBLIC "-//W3C//DTD SVG 1.1//EN" "http://www.w3.org/Graphics/SVG/1.1/DTD/svg11.dtd" >
<svg xmlns="http://www.w3.org/2000/svg" xmlns:xlink="http://www.w3.org/1999/xlink" version="1.1">
<metadata>
Created by FontForge 20170731 at Mon Dec 15 18:51:54 1997
 By Aleksey,,,
Copyright 1997 by MGI Software
</metadata>
<defs>
<font id="EurostarRegularExtended" horiz-adv-x="1024" >
  <font-face 
    font-family="Eurostar Regular Extended"
    font-weight="400"
    font-stretch="normal"
    units-per-em="2048"
    panose-1="2 11 5 7 2 2 2 6 2 4"
    ascent="1581"
    descent="-467"
    x-height="969"
    cap-height="1365"
    bbox="-526 -512 4036 1969"
    underline-thickness="135"
    underline-position="-403"
    unicode-range="U+0020-F002"
  />
<missing-glyph 
d="M128 0v1969h768v-1969h-768zM256 128h512v1713h-512v-1713z" />
    <glyph glyph-name=".notdef" 
d="M128 0v1969h768v-1969h-768zM256 128h512v1713h-512v-1713z" />
    <glyph glyph-name=".null" horiz-adv-x="0" 
 />
    <glyph glyph-name="nonmarkingreturn" horiz-adv-x="512" 
 />
    <glyph glyph-name="space" unicode=" " horiz-adv-x="512" 
 />
    <glyph glyph-name="exclam" unicode="!" horiz-adv-x="590" 
d="M222 404l-9 961h167l-10 -961h-148zM191 0v229h208v-229h-208z" />
    <glyph glyph-name="quotedbl" unicode="&#x22;" horiz-adv-x="689" 
d="M240 818h-116l-22 547h160zM565 818h-116l-22 547h160z" />
    <glyph glyph-name="numbersign" unicode="#" horiz-adv-x="1857" 
d="M732 1000h496l58 367h131l-58 -367h298l-19 -124h-299l-59 -370h299l-21 -132h-299l-59 -374h-131l60 374h-496l-60 -374h-126l59 374h-307l21 132h307l59 370h-307l19 124h307l58 367h127zM654 506h496l58 370h-496z" />
    <glyph glyph-name="dollar" unicode="$" horiz-adv-x="1857" 
d="M979 1226v-459l198 -4q216 -4 284 -18q266 -53 266 -346q0 -232 -136 -321q-120 -78 -438 -78h-174v-137h-130v137h-193q-328 0 -440 107q-85 82 -85 274q0 16 1 53h171v-34q0 -89 13 -129q20 -63 83 -93q83 -39 321 -39h129v487l-168 4q-154 4 -165 4q-93 6 -163 24
q-209 55 -209 342q0 291 224 344q91 21 318 21h163v151h130v-151h193q257 0 337 -33q151 -62 176 -219q6 -37 6 -135h-164q0 132 -27 174q-37 58 -153 71q-27 3 -178 3h-190zM849 1226h-155q-230 0 -302 -43q-81 -48 -81 -182q0 -197 152 -217q55 -7 218 -11l168 -4v457z
M979 139h218q211 0 300 72q63 51 63 177q0 150 -84 192q-67 33 -299 39l-198 5v-485z" />
    <glyph glyph-name="percent" unicode="%" horiz-adv-x="2944" 
d="M767 -10l1199 1385h203l-1199 -1385h-203zM687 1418q325 0 427 -81q82 -65 108 -185q15 -71 15 -220q0 -143 -16 -214q-26 -115 -107 -179q-104 -82 -427 -82q-322 0 -427 82q-82 64 -108 182q-15 70 -15 217q0 146 16 217q26 119 107 182q104 81 427 81zM687 1289
q-265 0 -332 -69t-67 -282q0 -224 78 -292q69 -60 321 -60q263 0 333 70q66 66 66 276q0 111 -8 159q-17 92 -70 138q-70 60 -321 60zM2257 926q326 0 428 -81q82 -65 108 -185q15 -71 15 -220q0 -143 -16 -214q-26 -115 -107 -179q-104 -82 -428 -82q-322 0 -427 82
q-82 64 -108 182q-15 70 -15 217q0 145 16 217q26 119 107 182q103 81 427 81zM2258 797q-126 0 -175 -6q-110 -14 -158 -64q-67 -69 -67 -281q0 -225 78 -292q70 -60 321 -60q263 0 333 70q67 67 67 276q0 111 -8 159q-17 92 -70 138q-70 60 -321 60z" />
    <glyph glyph-name="ampersand" unicode="&#x26;" horiz-adv-x="2046" 
d="M2004 3l-285 149q-65 -111 -271 -140q-77 -11 -321 -11q-648 0 -766 50q-197 83 -197 379q0 201 71 285q77 91 273 98q-90 57 -124 107q-41 59 -41 156q0 259 239 294q68 10 219 10q349 0 335 0q236 -5 333 -37q127 -42 161 -164q20 -73 20 -210h-172q-1 77 -3 102
q-7 65 -30 96q-35 49 -187 61q-42 3 -204 3q-373 0 -427 -9q-113 -19 -113 -154q0 -84 63 -139q28 -25 138 -83l898 -474q10 56 10 129q0 51 -4 164h175q4 -65 4 -120q0 -137 -27 -256l275 -145zM620 731q-170 -9 -229 -79q-54 -64 -54 -239q0 -155 68 -205q92 -68 575 -68
q525 0 582 96z" />
    <glyph glyph-name="quotesingle" unicode="'" horiz-adv-x="364" 
d="M240 818h-116l-22 547h160z" />
    <glyph glyph-name="parenleft" unicode="(" horiz-adv-x="712" 
d="M657 1412v-136q-128 0 -153 -3q-96 -10 -135.5 -57.5t-54.5 -210.5q-10 -118 -7 -302q5 -322 5 -219q0 104 -5 -219q-3 -184 7 -302q15 -163 54.5 -210.5t135.5 -57.5q25 -3 153 -3v-135q-160 0 -213 7q-125 18 -188 85t-86 243q-17 129 -13 330q7 408 7 262
q0 -21 -4 223q-2 164 3 270q7 148 28 225q42 152 188 189q84 21 278 21z" />
    <glyph glyph-name="parenright" unicode=")" horiz-adv-x="712" 
d="M55 -443v135q128 0 153 3q96 10 135.5 57.5t54.5 210.5q10 118 7 302q-5 322 -5 219t5 219q3 184 -7 302q-15 163 -54.5 210.5t-135.5 57.5q-25 3 -153 3v136q157 0 212 -8q127 -18 189.5 -84t85.5 -243q17 -129 13 -331q-7 -412 -7 -262q0 21 4 -223q2 -164 -3 -271
q-7 -148 -28 -224q-42 -151 -188 -188q-86 -22 -278 -21z" />
    <glyph glyph-name="asterisk" unicode="*" horiz-adv-x="1388" 
d="M753 1570v-296l434 140l38 -118l-421 -137l244 -281l-95 -87l-259 298l-258 -298l-95 87l244 281l-421 137l38 118l434 -140v296h117z" />
    <glyph glyph-name="plus" unicode="+" horiz-adv-x="1720" 
d="M920 763h585v-121h-585v-560h-123v560h-581v121h581v548h123v-548z" />
    <glyph glyph-name="comma" unicode="," horiz-adv-x="590" 
d="M191 229h208v-229q0 -222 -219 -222h-14v110q102 0 98 112h-73v229z" />
    <glyph glyph-name="hyphen" unicode="-" horiz-adv-x="682" 
d="M0 608h682v-137h-682v137z" />
    <glyph glyph-name="hyphen" unicode="&#x2010;" horiz-adv-x="682" 
d="M0 608h682v-137h-682v137z" />
    <glyph glyph-name="period" unicode="." horiz-adv-x="590" 
d="M191 0v229h208v-229h-208z" />
    <glyph glyph-name="slash" unicode="/" horiz-adv-x="1510" 
d="M1260 1375h189l-1534 -1771h-189z" />
    <glyph glyph-name="zero" unicode="0" horiz-adv-x="1857" 
d="M929 1379q323 0 365 -4q243 -21 329 -121q75 -88 93 -281q5 -58 5 -303q0 -223 -7 -290q-18 -184 -91 -269q-86 -100 -329 -121q-42 -4 -365 -4t-365 4q-243 21 -329 121q-74 86 -92 275q-6 63 -6 296q0 234 6 297q18 189 92 275q86 101 329 122q39 3 365 3zM880 1240
q-218 0 -269 -4q-191 -16 -246 -82q-49 -59 -62 -229q-4 -56 -4 -243t4 -243q13 -170 62 -229q54 -65 247 -81q54 -4 268 -4q323 0 319 0q235 13 295 85q50 60 62 225q3 42 3 242q0 204 -3 245q-11 172 -62 232q-63 74 -296 87q17 -1 -318 -1z" />
    <glyph glyph-name="one" unicode="1" horiz-adv-x="1857" 
d="M483 815l-97 106l566 444h219v-1365h-158v1248z" />
    <glyph glyph-name="two" unicode="2" horiz-adv-x="1857" 
d="M188 860q0 180 15 247q41 186 221 235q136 37 506 37q244 0 325 -6q222 -18 308 -83q123 -94 123 -336q0 -265 -137 -352q-83 -53 -342 -72l-503 -37q-121 -9 -159 -15q-100 -18 -144 -59q-62 -58 -65 -280h1353v-139h-1519v83q-1 244 36 347q44 121 180 168
q79 27 256 40l507 37q210 15 266 44q104 52 104 223q0 175 -65.5 227.5t-253.5 66.5q-61 4 -268 4q-196 0 -259 -5q-177 -13 -246 -63q-79 -57 -79 -266v-46h-160z" />
    <glyph glyph-name="three" unicode="3" horiz-adv-x="1857" 
d="M725 767h527q139 0 191.5 50.5t52.5 189.5q0 168 -92 204q-73 29 -404 29q-474 0 -566 -33q-77 -28 -101 -106q-12 -43 -14 -155h-160q1 166 25 228q52 136 235 176q133 29 541 29q251 0 307 -4q203 -15 293 -77q103 -72 103 -302q0 -147 -39 -204q-46 -67 -184 -84
q185 -25 224 -152q16 -55 16 -164q0 -184 -46 -257q-70 -111 -254 -135q-85 -11 -384 -11q-319 0 -357 2q-259 10 -350 58q-140 74 -140 333v36h162v-40q0 -119 33 -167q45 -66 182 -75q169 -11 364 -11q464 0 536 35q57 28 76 93q11 40 11 125q0 87 -8 124q-15 70 -65 100
q-44 26 -179 26h-536v139z" />
    <glyph glyph-name="four" unicode="4" horiz-adv-x="1857" 
d="M168 298v214l1100 853h228v-928h221v-139h-221v-298h-158v298h-1170zM297 437h1027v807z" />
    <glyph glyph-name="five" unicode="5" horiz-adv-x="1857" 
d="M177 416h159q0 -120 15 -161q37 -99 250 -123q58 -7 299 -7q230 0 270 2q187 8 265 43q74 34 96 132q10 48 10 173q0 113 -18 166q-27 83 -110 115q-93 36 -525 36q-247 0 -293 -5q-212 -25 -231 -130h-163l15 708h1451v-139h-1301l-6 -467q42 101 127.5 136.5
t417.5 35.5q273 0 336 -4q222 -14 325 -72q86 -49 120 -147q22 -64 22 -220q0 -244 -49 -338q-40 -77 -141 -118q-114 -46 -524 -46q-521 0 -621 35q-147 52 -182 196q-14 58 -14 199z" />
    <glyph glyph-name="six" unicode="6" horiz-adv-x="1857" 
d="M1670 976h-172q0 156 -50 201q-54 49 -218 60q-38 3 -231 3q-252 0 -285 -2q-197 -10 -275 -58q-61 -38 -81 -121q-12 -49 -12 -151v-299q40 119 116 157q85 42 522 42q394 0 505 -34q91 -28 144 -106q45 -67 45 -238q0 -255 -101 -343q-88 -77 -292 -95q-62 -6 -315 -6
q-434 0 -543 31q-200 57 -233 290q-15 107 -15 380q0 390 48 491q65 137 245 175q123 26 525 26q341 0 468 -44q110 -38 162 -128q40 -69 43 -231zM937 669q-405 0 -487 -44q-100 -53 -100 -230q0 -101 28 -154q34 -65 123.5 -90.5t458.5 -25.5q413 0 490 71q61 56 61 235
q0 94 -18 136q-25 60 -102 80q-82 22 -454 22z" />
    <glyph glyph-name="seven" unicode="7" horiz-adv-x="1857" 
d="M131 1365h1541v-198l-1022 -1167h-217l1077 1226h-1379v139z" />
    <glyph glyph-name="eight" unicode="8" horiz-adv-x="1857" 
d="M1437 693q195 -20 233 -136q18 -58 18 -178q0 -215 -86 -299q-82 -79 -293 -89q-110 -5 -381 -5q-548 0 -255 -2q-165 1 -256 20q-202 42 -237 220q-12 57 -12 155q0 212 86 267q56 36 165 47q-118 27 -162 67q-74 66 -74 247q0 126 28 195q37 95 136 132q76 28 210 34
q235 11 371 11q440 0 578 -44q107 -34 146 -145q21 -60 21 -183q0 -200 -97 -266q-37 -25 -139 -48zM928 1240q-354 0 -459 -23q-74 -16 -102 -75q-20 -43 -20 -130q0 -171 65 -205q59 -31 251 -37q16 -1 256 -1h265q201 6 260 38q65 35 65 205q0 87 -20 130q-28 59 -102 75
q-104 23 -459 23zM935 633q-234 0 -267 -1q-201 -8 -262 -42q-72 -41 -72 -199q0 -97 16 -140q24 -68 97 -93q97 -33 481 -33q401 0 494 38q66 27 87 94q13 42 13 134q0 158 -72 199q-75 43 -515 43z" />
    <glyph glyph-name="nine" unicode="9" horiz-adv-x="1857" 
d="M187 389h172q0 -157 50 -202q54 -48 218 -59q39 -3 231 -3q253 0 285 2q196 10 275 58q62 38 81 121q12 49 12 151v299q-40 -120 -116 -157q-85 -42 -522 -42q-393 0 -505 34q-91 28 -144 106q-45 67 -45 238q0 254 101 342q89 78 292 97q60 5 315 5q436 0 543 -31
q200 -58 233 -290q15 -107 15 -380q0 -390 -48 -491q-65 -137 -245 -175q-125 -26 -525 -26q-344 0 -468 43q-109 38 -162 129q-40 69 -43 231zM897 1240q-413 0 -490 -71q-61 -56 -61 -235q0 -94 18 -136q25 -61 103 -81.5t453 -20.5q404 0 487 44q100 53 100 230
q0 101 -28 154q-34 66 -122 90q-93 26 -460 26z" />
    <glyph glyph-name="colon" unicode=":" horiz-adv-x="590" 
d="M191 0v229h208v-229h-208zM191 740v229h208v-229h-208z" />
    <glyph glyph-name="semicolon" unicode=";" horiz-adv-x="590" 
d="M191 229h208v-229q0 -222 -219 -222h-14v110q102 0 98 112h-73v229zM191 740v229h208v-229h-208z" />
    <glyph glyph-name="less" unicode="&#x3c;" 
d="M955 1168v-147l-730 -332l730 -332v-146l-887 415v128z" />
    <glyph glyph-name="equal" unicode="=" horiz-adv-x="1720" 
d="M237 867h1247v-116h-1247v116zM237 646h1247v-116h-1247v116z" />
    <glyph glyph-name="greater" unicode="&#x3e;" 
d="M69 210v147l730 332l-730 333v145l887 -414v-128z" />
    <glyph glyph-name="question" unicode="?" horiz-adv-x="1543" 
d="M602 436q0 153 63 215q50 49 168 75q1 0 185 28q131 20 176 61q53 49 53 174q0 176 -81 217q-87 44 -425 44q-309 0 -386 -38q-65 -32 -76 -102q-6 -37 -6 -159v-21h-157v86q0 114 11 159q19 77 86 128q79 61 252 74q39 3 268 3q217 0 272 -4q178 -12 261 -63.5
t113 -147.5q21 -68 21 -191q0 -154 -62.5 -232.5t-218.5 -111.5q-50 -11 -221 -39q-85 -14 -112 -42q-32 -31 -31 -113h-153zM575 0v229h208v-229h-208z" />
    <glyph glyph-name="at" unicode="@" horiz-adv-x="1921" 
d="M1656 140h123q-19 -149 -142 -220q-91 -52 -332 -64q-55 -3 -342 -3q-482 0 -602 37q-189 58 -237 260q-29 123 -29 464q0 255 7 324q19 207 100 301q95 110 360 133q44 4 398 4q480 0 599 -37q188 -58 237 -261q30 -125 30 -395q0 -277 -41 -359q-35 -70 -119 -90
q-45 -11 -157 -11q-138 0 -172 8q-94 22 -108 110q-59 -84 -163 -110q-61 -15 -203 -15q-203 0 -274 26q-132 47 -132 208q0 197 70 359q58 135 195 177q83 26 276 26q140 0 191 -12q107 -25 137 -113l20 115h128l-94 -529q-8 -45 -8 -68q0 -49 56 -63q25 -6 96 -6
q119 0 144 53q28 59 28 313q0 378 -73 467q-64 78 -319 94q-21 1 -344 1t-344 -1q-254 -16 -319 -94q-56 -67 -70 -270q-4 -63 -4 -285q0 -221 4 -285q14 -204 70 -269q57 -68 177 -82q108 -13 487 -13q460 0 286 -3q190 3 284.5 34.5t124.5 143.5zM984 899q-227 0 -289 -53
q-56 -49 -89 -214q-18 -91 -18 -155q0 -114 108 -140q32 -8 206 -8q152 0 206 16q98 30 137 137q47 130 47 265q0 131 -128 147q-47 5 -180 5z" />
    <glyph glyph-name="A" unicode="A" horiz-adv-x="1760" 
d="M1439 307h-1117l-182 -307h-181l804 1365h233l805 -1365h-181zM1362 437l-482 814l-481 -814h963z" />
    <glyph glyph-name="B" unicode="B" horiz-adv-x="1907" 
d="M191 0v1365h1093q127 0 183 -9q105 -16 165 -71q97 -88 97 -278q0 -151 -54.5 -209.5t-206.5 -76.5q82 -6 116 -13q65 -13 106 -44q87 -66 87 -266q0 -207 -98 -299q-106 -99 -333 -99h-1155zM355 778h815q260 0 316 35q72 45 72 186t-79 191q-60 38 -213 38h-911v-450z
M355 137h918q211 0 275 59q58 54 58 200q0 171 -87 217q-67 35 -283 35h-881v-511z" />
    <glyph glyph-name="C" unicode="C" horiz-adv-x="1918" 
d="M1621 459h160v-57q0 -215 -69 -298q-71 -86 -244 -104q-145 -15 -496 -15q-310 0 -373 6q-246 22 -341 119q-82 84 -102 273q-7 65 -7 299q0 191 3 242q9 147 44 237q69 175 311 202q151 17 589 17q210 0 280 -6q185 -15 265 -71.5t108 -165.5q16 -64 20 -202h-160v35
q0 97 -19 143q-26 65 -104 90q-107 34 -508 34q-242 0 -303 -4q-224 -16 -284 -80q-53 -56 -66 -228q-5 -56 -5 -243q0 -186 5 -243q13 -172 66 -227q62 -65 267 -80q52 -4 286 -4q393 0 524 27q90 18 124 78q29 49 29 148v78z" />
    <glyph glyph-name="D" unicode="D" horiz-adv-x="2028" 
d="M191 0v1365h1062q284 0 417 -80q129 -78 177 -269q31 -124 31 -333q0 -333 -89 -485q-73 -124 -237 -168q-108 -30 -299 -30h-1062zM355 137h911q289 0 371 133q70 113 70 405q0 317 -73 430q-80 123 -380 123h-899v-1091z" />
    <glyph glyph-name="E" unicode="E" horiz-adv-x="1677" 
d="M191 0v1365h1361v-137h-1197v-455h1152v-130h-1152v-506h1206v-137h-1370z" />
    <glyph glyph-name="F" unicode="F" horiz-adv-x="1572" 
d="M191 0v1365h1306v-137h-1142v-470h1084v-130h-1084v-628h-164z" />
    <glyph glyph-name="G" unicode="G" horiz-adv-x="2011" 
d="M978 674h891q-1 -218 -9 -309q-28 -316 -286 -359q-126 -21 -537 -21q-370 0 -405 3q-274 20 -373 122q-82 84 -102 273q-7 65 -7 300q0 234 7 299q20 189 102 273q100 104 397 124q19 1 430 1q265 0 322 -4q214 -14 307 -77q131 -88 140 -335h-162q-2 97 -12 135.5
t-39 66.5q-63 59 -241 71h-258q-339 0 -368 -1q-288 -11 -358 -61q-74 -53 -91 -232q-5 -48 -5 -260q0 -187 5 -244q13 -172 66 -227q63 -66 278 -81q44 -3 298 -3q365 0 347 -1q259 13 326 86q47 52 61 154q4 31 7 170h-731v137z" />
    <glyph glyph-name="H" unicode="H" horiz-adv-x="1990" 
d="M191 0v1365h164v-596h1280v596h164v-1365h-164v639h-1280v-639h-164z" />
    <glyph glyph-name="I" unicode="I" horiz-adv-x="546" 
d="M191 0v1365h164v-1365h-164z" />
    <glyph glyph-name="J" unicode="J" horiz-adv-x="1516" 
d="M1174 1365h164v-889q0 -199 -34 -288q-56 -147 -248 -186q-82 -17 -332 -17q-416 0 -538 72q-110 65 -127 224q-4 38 -4 167v54h160v-97q0 -104 13 -147q24 -73 99 -98q96 -32 388 -32q276 0 362 44q69 35 89 161q8 52 8 194v838z" />
    <glyph glyph-name="K" unicode="K" horiz-adv-x="1783" 
d="M191 0v1365h164v-595h247l894 595h276l-997 -662l1049 -703h-276l-949 640h-244v-640h-164z" />
    <glyph glyph-name="L" unicode="L" horiz-adv-x="1479" 
d="M191 0v1365h164v-1228h1083v-137h-1247z" />
    <glyph glyph-name="M" unicode="M" horiz-adv-x="2552" 
d="M191 0v1365h265l824 -1174l824 1174h257v-1365h-164v1231l-861 -1231h-120l-861 1231v-1231h-164z" />
    <glyph glyph-name="N" unicode="N" horiz-adv-x="2101" 
d="M191 0v1365h264l1290 -1248v1248h164v-1365h-264l-1290 1248v-1248h-164z" />
    <glyph glyph-name="O" unicode="O" horiz-adv-x="2058" 
d="M1038 1380q353 0 396 -3q267 -21 365 -122q82 -84 102 -273q7 -65 7 -299q0 -235 -7 -300q-20 -189 -102 -273q-99 -101 -369 -122q-37 -3 -401 -3t-401 3q-270 21 -369 122q-82 84 -102 273q-7 65 -7 299q0 235 7 300q20 189 102 273q99 102 374 122q34 3 405 3z
M1038 1237q-293 0 -333 -2q-250 -15 -313 -82q-53 -56 -66 -228q-5 -56 -5 -243q0 -186 5 -243q13 -171 66 -227q66 -70 308 -83q11 -1 329 -1t329 1q242 13 308 83q53 56 66 227q5 57 5 243q0 189 -4 243q-14 171 -67 228q-62 66 -304 81q-47 3 -324 3z" />
    <glyph glyph-name="P" unicode="P" horiz-adv-x="1835" 
d="M191 0v1365h1103q135 0 193 -10q112 -18 171 -80q81 -85 81 -313q0 -125 -14 -189q-24 -104 -94 -160q-95 -76 -301 -76h-975v-537h-164zM355 674h853q202 0 269 40q91 55 91 238q0 138 -39 193q-59 83 -288 83h-886v-554z" />
    <glyph glyph-name="Q" unicode="Q" horiz-adv-x="2058" 
d="M2001 173l-70 -134l-124 80q-100 -109 -371 -131q-37 -3 -407 -3q-364 0 -401 3q-270 21 -369 122q-82 84 -102 273q-7 65 -7 300q0 234 7 299q20 189 102 273q99 101 369 122q37 3 401 3t401 -3q270 -21 369 -122q82 -84 102 -272q7 -65 7 -299q0 -313 -31 -431z
M1105 571l82 127l536 -346q14 112 14 333q0 185 -5 242q-13 170 -66 226q-63 67 -309 81q-43 3 -328 3t-328 -3q-246 -14 -309 -81q-53 -56 -66 -228q-5 -56 -5 -243q0 -186 5 -243q13 -172 66 -227q66 -69 301 -83q21 -1 321 -1q343 0 334 0q239 12 316 83z" />
    <glyph glyph-name="R" unicode="R" horiz-adv-x="1938" 
d="M191 0v1365h1126q192 0 275 -37q110 -49 152 -157q31 -80 31 -222q0 -228 -109 -291q-59 -34 -198 -48q200 -21 254 -123q27 -52 27 -132v-355h-164v260q0 177 -54 230q-61 60 -238 60h-938v-550h-164zM355 680h899q192 0 260 43q90 57 90 233q0 180 -101 234
q-71 38 -259 38h-889v-548z" />
    <glyph glyph-name="S" unicode="S" horiz-adv-x="1831" 
d="M137 425h164v-36q0 -91 18 -135q25 -63 98 -87q117 -39 477 -39q404 0 525 54q105 47 105 213q0 158 -127 194q-104 30 -354 32q-176 -2 -353 -3q-151 1 -226 10q-138 16 -212 66q-115 78 -115 268q0 212 110 302q97 79 340 104q118 12 363 12q441 0 572 -81
q83 -51 113 -140q21 -59 25 -183h-160q-5 146 -66 192q-91 69 -483 69q-374 0 -513 -44q-130 -41 -130 -218q0 -136 84 -175q67 -31 258 -37q29 -1 262 -1q348 0 458 -14q177 -23 250 -101q75 -82 75 -258q0 -168 -69 -257q-71 -93 -231 -122q-139 -25 -470 -25
q-448 0 -597 52q-191 66 -191 294v94z" />
    <glyph glyph-name="T" unicode="T" horiz-adv-x="1523" 
d="M679 0v1228h-693v137h1550v-137h-693v-1228h-164z" />
    <glyph glyph-name="U" unicode="U" horiz-adv-x="1964" 
d="M1622 1365h164v-927q0 -184 -21 -242q-51 -140 -235 -180q-144 -31 -549 -31q-439 0 -576 38q-174 48 -213 194q-15 56 -15 221v927h164v-898q0 -138 8 -173q22 -97 151 -138q96 -31 259 -33q-513 5 222 5q266 0 312 3q234 17 288 89q33 45 40 119q1 12 1 128v898z" />
    <glyph glyph-name="V" unicode="V" horiz-adv-x="1659" 
d="M-41 1365h184l687 -1244l687 1244h183l-755 -1365h-231z" />
    <glyph glyph-name="W" unicode="W" horiz-adv-x="2806" 
d="M-14 1365h181l567 -1215l575 1215h193l574 -1215l570 1215h173l-645 -1365h-202l-569 1206l-570 -1206h-202z" />
    <glyph glyph-name="X" unicode="X" horiz-adv-x="1732" 
d="M-27 0l755 725l-688 640h227l599 -560l600 560h227l-688 -640l755 -725h-225l-669 645l-669 -645h-224z" />
    <glyph glyph-name="Y" unicode="Y" horiz-adv-x="1666" 
d="M833 709l650 656h224l-792 -791v-574h-164v574l-792 791h224z" />
    <glyph glyph-name="Z" unicode="Z" horiz-adv-x="1704" 
d="M55 0v137l1319 1091h-1263v137h1503v-137l-1318 -1091h1340v-137h-1581z" />
    <glyph glyph-name="bracketleft" unicode="[" horiz-adv-x="633" 
d="M579 1399v-124h-269v-1579h269v-126h-415v1829h415z" />
    <glyph glyph-name="backslash" unicode="\" horiz-adv-x="1510" 
d="M250 1375l1534 -1771h-189l-1534 1771h189z" />
    <glyph glyph-name="bracketright" unicode="]" horiz-adv-x="633" 
d="M55 -430v124h269v1579h-269v126h415v-1829h-415z" />
    <glyph glyph-name="asciicircum" unicode="^" 
d="M212 749h-159l363 620h193l363 -620h-160l-301 503z" />
    <glyph glyph-name="underscore" unicode="_" 
d="M0 -135h1024v-135h-1024v135z" />
    <glyph glyph-name="grave" unicode="`" 
d="M648 1111l-431 118l48 136l405 -173z" />
    <glyph glyph-name="a" unicode="a" horiz-adv-x="1466" 
d="M167 688q3 178 105 236.5t418 58.5q205 0 268 -6q170 -16 251 -79q63 -49 82 -137q11 -49 11 -164v-597h-146v131q-46 -111 -197 -137q-47 -8 -257 -8q-204 0 -246 3q-168 11 -235 58q-98 69 -98 242q0 174 84 232q93 64 471 64q223 0 265 -6q165 -23 213 -127v102
q0 101 -7 140q-15 82 -66 117q-72 49 -388 49q-208 0 -243 -8q-128 -30 -130 -164h-155zM718 462q-240 0 -278 -7q-167 -31 -167 -172q0 -127 97 -154q71 -20 337 -20q256 0 334 26q117 39 117 160q0 93 -80 134q-64 33 -360 33z" />
    <glyph glyph-name="b" unicode="b" horiz-adv-x="1552" 
d="M164 0v1379h146v-554q55 110 215 142q78 16 271 16q392 0 501 -96q119 -104 119 -403q0 -298 -119 -402q-110 -96 -502 -96q-191 0 -270 16q-161 32 -215 141v-143h-146zM786 860q-159 0 -220 -7q-147 -18 -197 -80q-60 -74 -60 -284q0 -239 75 -309.5t399 -70.5
q159 0 222 7q148 18 198 80q60 74 60 288q0 235 -75 305.5t-402 70.5z" />
    <glyph glyph-name="c" unicode="c" horiz-adv-x="1461" 
d="M1352 353q-10 -164 -74 -241q-72 -87 -252 -113q-86 -13 -285 -13q-385 0 -490 96q-114 104 -114 402q0 299 114 403q105 96 489 96q205 0 290 -14q178 -30 248 -129q53 -75 59 -211h-159v20q0 164 -180 196q-84 15 -272 15q-216 0 -284 -23q-100 -34 -133 -145
q-19 -66 -19 -208q0 -233 71 -304q53 -53 183 -66q45 -5 200 -5q238 0 309 25q80 28 111 82q27 46 29 137h159z" />
    <glyph glyph-name="d" unicode="d" horiz-adv-x="1552" 
d="M1389 0h-146v143q-54 -109 -215 -141q-79 -16 -271 -16q-391 0 -501 96q-119 104 -119 402q0 299 119 403q109 96 502 96q192 0 270 -16q160 -32 215 -142v554h146v-1379zM770 860q-161 0 -221 -7q-148 -18 -199 -80q-60 -74 -60 -289q0 -234 75 -304.5t402 -70.5
q158 0 220 7q147 18 197 80q60 74 60 284q0 239 -75 309.5t-399 70.5z" />
    <glyph glyph-name="e" unicode="e" horiz-adv-x="1493" 
d="M290 457q1 -108 8 -147q24 -135 145 -176q74 -25 318 -25q213 0 273 13q160 34 178 168h149q-17 -229 -260 -279q-117 -25 -348 -25q-387 0 -497 96q-119 104 -119 402q0 299 119 403q109 96 495 96q198 0 289 -15q178 -30 249 -127q77 -105 75 -384h-1074zM1210 576
q-1 102 -29 156q-49 95 -192 119q-54 9 -238 9q-269 0 -353 -45q-101 -54 -108 -239h920z" />
    <glyph glyph-name="f" unicode="f" horiz-adv-x="799" 
d="M212 0v846h-212v123h212v75q0 266 190 320q94 27 310 27h128v-123h-98q-240 0 -307 -39q-77 -45 -77 -179v-81h482v-123h-482v-846h-146z" />
    <glyph glyph-name="g" unicode="g" horiz-adv-x="1552" 
d="M1389 969v-874q0 -273 -54 -375q-66 -125 -252 -161q-88 -17 -314 -17q-381 0 -492 84q-117 89 -117 249v20h149v-20q0 -167 188 -197q81 -13 280 -13q273 0 352 41q94 49 107 211q6 74 7 226q-64 -110 -216 -141q-74 -16 -269 -16q-393 0 -502 96q-119 104 -119 403
q0 298 119 402q110 96 503 96q195 0 269 -16q151 -31 215 -142v144h146zM762 860q-249 0 -320 -23q-105 -34 -140 -142q-21 -67 -21 -210q0 -233 76 -305q56 -53 192 -66q47 -5 209 -5q243 0 316 24q104 34 139 140q22 67 22 207q0 239 -76 310q-55 51 -191 65q-51 5 -206 5
z" />
    <glyph glyph-name="h" unicode="h" horiz-adv-x="1490" 
d="M164 0v1379h146v-602q32 97 116 146q99 58 401 58q282 0 390.5 -77t108.5 -294v-610h-146v603q0 138 -54 186q-77 68 -342 68q-220 0 -318 -40q-156 -64 -156 -248v-569h-146z" />
    <glyph glyph-name="i" unicode="i" horiz-adv-x="474" 
d="M164 0v969h146v-969h-146zM164 1200v179h146v-179h-146z" />
    <glyph glyph-name="j" unicode="j" horiz-adv-x="473" 
d="M164 969h145v-1018q0 -136 -31 -197q-53 -103 -248 -103q-11 0 -39 1v123q25 -2 36 -2q93 0 120 61q17 37 17 146v989zM164 1200v179h145v-179h-145z" />
    <glyph glyph-name="k" unicode="k" horiz-adv-x="1288" 
d="M164 0v1379h146v-799h85l610 389h243l-707 -451l774 -518h-238l-682 457h-85v-457h-146z" />
    <glyph glyph-name="l" unicode="l" horiz-adv-x="474" 
d="M164 0v1379h146v-1379h-146z" />
    <glyph glyph-name="m" unicode="m" horiz-adv-x="2373" 
d="M164 0v969h146v-190q51 141 196 182q77 22 283 22q175 0 256 -28q127 -44 169 -176q57 140 223 182q87 22 304 22q251 0 346 -61q123 -79 123 -311v-611h-146v604q0 86 -15 128q-21 61 -85 91q-79 37 -263 37q-202 0 -300 -46q-141 -67 -141 -244v-570h-146v604
q0 86 -15 128q-21 61 -85 91q-79 37 -263 37q-203 0 -301 -46q-140 -66 -140 -244v-570h-146z" />
    <glyph glyph-name="n" unicode="n" horiz-adv-x="1493" 
d="M164 0v969h146v-192q54 152 211 196q82 23 306 23q157 0 235 -16q154 -32 214 -123q53 -81 53 -247v-610h-146v603q0 140 -54 188q-76 68 -342 68q-219 0 -319 -41q-158 -65 -158 -249v-569h-146z" />
    <glyph glyph-name="o" unicode="o" horiz-adv-x="1533" 
d="M766 983q402 0 512 -96q119 -104 119 -409q0 -292 -119 -396q-109 -96 -511 -96q-401 0 -511 96q-119 104 -119 402t119 403q108 96 510 96zM770 860q-161 0 -222 -7q-148 -18 -198 -80q-60 -74 -60 -289q0 -234 75 -304.5t402 -70.5q158 0 220 7q147 18 197 80
q60 74 60 284q0 239 -75 309.5t-399 70.5z" />
    <glyph glyph-name="p" unicode="p" horiz-adv-x="1552" 
d="M164 969h146v-143q54 109 215 141q80 16 271 16q392 0 501 -96q119 -104 119 -402q0 -299 -119 -403q-110 -96 -502 -96q-192 0 -271 16q-160 33 -214 142v-554h-146v1379zM786 860q-158 0 -220 -7q-147 -18 -197 -80q-60 -74 -60 -284q0 -239 75 -309.5t399 -70.5
q159 0 222 7q148 18 198 80q60 74 60 289q0 234 -75 304.5t-402 70.5z" />
    <glyph glyph-name="q" unicode="q" horiz-adv-x="1552" 
d="M1389 969v-1379h-146v554q-54 -110 -215 -142q-79 -16 -271 -16q-391 0 -501 96q-119 104 -119 403q0 298 119 402q109 96 502 96q191 0 270 -16q161 -33 215 -141v143h146zM770 860q-161 0 -221 -7q-148 -18 -199 -80q-60 -74 -60 -288q0 -235 75 -305.5t402 -70.5
q158 0 220 7q147 18 197 80q60 74 60 284q0 239 -75 309.5t-399 70.5z" />
    <glyph glyph-name="r" unicode="r" horiz-adv-x="1224" 
d="M164 0v969h146v-190q46 139 174 180q74 24 266 24q237 0 327 -67q106 -79 106 -304v-58h-146v51q0 175 -88 221q-65 34 -238 34q-193 0 -281 -49q-120 -66 -120 -240v-571h-146z" />
    <glyph glyph-name="s" unicode="s" horiz-adv-x="1461" 
d="M1159 695v22q0 81 -49 107q-71 37 -351 37q-360 0 -181 3q-127 -2 -195 -33q-92 -40 -92 -134q0 -90 67 -117q48 -19 372 -21q127 -1 254 -1q171 -8 248 -47q107 -54 107 -231q0 -197 -132 -250q-85 -34 -238 -42q-45 -2 -243 -2q-200 0 -256 4q-176 11 -246 56
q-65 41 -86 112q-15 47 -15 144v25h150v-24q0 -119 50 -150q72 -44 442 -44q430 0 173 -4q113 2 171 32q77 41 77 137q0 79 -33.5 113.5t-110.5 40.5q-66 5 -319 7h-252q-175 6 -244 48q-89 54 -89 214q0 175 111.5 230.5t459.5 55.5q206 0 266 -4q177 -14 252 -67
q79 -56 79 -201v-16h-147z" />
    <glyph glyph-name="t" unicode="t" horiz-adv-x="1114" 
d="M-14 846v123h233l4 215h147l-4 -215h665v-123h-668l-8 -485q-2 -97 13 -142q24 -71 99 -92q62 -18 197 -18q186 0 232 73q25 40 25 205v33h131v-39q0 -122 -3 -153q-9 -95 -47 -142q-81 -100 -349 -100q-147 0 -220 15q-127 27 -183 110q-45 67 -42 250l9 485h-231z" />
    <glyph glyph-name="u" unicode="u" horiz-adv-x="1493" 
d="M1329 969v-969h-146v192q-54 -152 -211 -196q-82 -23 -306 -23q-155 0 -235 16q-155 31 -215 123q-52 81 -52 247v610h146v-603q0 -140 54 -188q76 -68 342 -68q219 0 320 41q157 65 157 249v569h146z" />
    <glyph glyph-name="v" unicode="v" horiz-adv-x="1244" 
d="M-41 969h166l497 -868l498 868h164l-558 -969h-209z" />
    <glyph glyph-name="w" unicode="w" horiz-adv-x="1932" 
d="M0 969h160l379 -856l319 856h221l319 -856l379 856h155l-434 -969h-206l-326 866l-326 -866h-207z" />
    <glyph glyph-name="x" unicode="x" horiz-adv-x="1274" 
d="M-14 0l542 509l-470 460h189l390 -380l389 380h190l-471 -460l542 -509h-194l-456 429l-456 -429h-195z" />
    <glyph glyph-name="y" unicode="y" horiz-adv-x="1162" 
d="M-34 969h160l482 -873l434 873h154l-522 -1047q-68 -136 -84 -164q-55 -96 -112 -143q-101 -83 -281 -83q-19 0 -59 2v121q30 -1 46 -1q137 0 212 71q50 47 125 197l39 78h-55z" />
    <glyph glyph-name="z" unicode="z" horiz-adv-x="1245" 
d="M68 0v123l880 723h-841v123h1051v-123l-882 -723h886v-123h-1094z" />
    <glyph glyph-name="braceleft" unicode="{" horiz-adv-x="712" 
d="M657 1276q-214 0 -265 -36q-64 -45 -78 -189q-4 -36 -4 -214v-113q0 -91 -21 -140q-25 -60 -95 -100q70 -40 95 -100q21 -49 21 -140v-113q0 -263 28 -332q33 -82 136 -101q33 -6 183 -6v-135q-271 0 -356 54q-102 65 -128 235q-9 62 -9 280v109q0 148 -116 179v141
q116 29 116 179v108q0 323 47 414q57 110 194 141q67 15 252 15v-136z" />
    <glyph glyph-name="bar" unicode="|" 
d="M439 1365h147v-1706h-147v1706z" />
    <glyph glyph-name="braceright" unicode="}" horiz-adv-x="712" 
d="M55 -308q213 0 265 36q64 44 78 189q4 36 4 214v113q0 91 21 140q25 60 95 100q-70 40 -95 100q-21 49 -21 140v113q0 263 -28 332q-33 82 -136 101q-33 6 -183 6v136q269 0 356 -55q102 -65 128 -235q9 -61 9 -280v-108q0 -150 116 -179v-141q-116 -31 -116 -179v-109
q0 -321 -47 -413q-57 -111 -194 -141q-65 -15 -252 -15v135z" />
    <glyph glyph-name="asciitilde" unicode="~" horiz-adv-x="1365" 
d="M277 1193l-87 57q44 87 75 128q80 106 205 106q76 0 230 -71q141 -65 199 -65q102 0 186 140l89 -52q-56 -111 -111 -159q-81 -70 -183 -70q-69 0 -286 99q-83 38 -135 38q-100 0 -182 -151z" />
    <glyph glyph-name="nonbreakingspace" unicode="&#xa0;" horiz-adv-x="512" 
 />
    <glyph glyph-name="exclamdown" unicode="&#xa1;" horiz-adv-x="590" 
d="M368 565l9 -961h-167l9 961h149zM399 969v-229h-208v229h208z" />
    <glyph glyph-name="cent" unicode="&#xa2;" horiz-adv-x="1857" 
d="M1008 202v-202h-130v201q-144 3 -212 11q-136 16 -201 60q-146 98 -146 427q0 249 74 355q66 95 222 125q78 15 263 17v169h130v-170q150 -4 217 -15q130 -21 197 -80q89 -79 100 -257h-160q1 14 1 20q0 119 -89 165q-64 33 -266 41v-740q122 3 142 4q81 8 135 37
q89 48 93 197h159q-13 -190 -104 -270q-99 -86 -425 -95zM878 1070q-117 -2 -150 -5q-93 -8 -144 -36q-106 -58 -106 -330q0 -273 106 -331q68 -38 294 -41v743z" />
    <glyph glyph-name="sterling" unicode="&#xa3;" horiz-adv-x="1857" 
d="M83 674h245v244q0 194 43 274q73 136 314 172q95 15 377 15q224 0 297 -7q196 -20 273 -96q58 -57 75 -155q9 -53 9 -176h-166q0 185 -39.5 232.5t-218.5 59.5q-50 3 -234 3q-183 0 -257 -7q-176 -16 -241 -72q-74 -64 -74 -250v-237h688v-139h-688v-149q0 -93 -19 -141
q-24 -58 -93 -106h1400v-139h-1621v139q109 12 147 84q28 53 28 177v135h-245v139z" />
    <glyph glyph-name="currency" unicode="&#xa4;" horiz-adv-x="1391" 
d="M143 200l186 190q-106 135 -106 294q0 151 107 291l-193 190l71 71l190 -190q143 109 298 109q156 0 295 -108l191 188l70 -70l-190 -189q107 -141 107 -294q0 -152 -105 -291l191 -191l-70 -71l-191 191q-136 -106 -295 -106q-149 0 -297 105l-190 -190zM701 1044
q-150 2 -259 -107q-104 -104 -104 -254q0 -149 104.5 -253.5t253.5 -104.5t253.5 104.5t104.5 253.5q0 153 -105 256t-248 105z" />
    <glyph glyph-name="yen" unicode="&#xa5;" horiz-adv-x="1857" 
d="M928 698l651 667h221l-542 -541h421v-126h-560l-112 -124v-63h672v-126h-672v-385h-158v385h-671v126h671v63l-111 124h-560v126h420l-541 541h221z" />
    <glyph glyph-name="brokenbar" unicode="&#xa6;" 
d="M439 1365h147v-681h-147v681zM439 314h147v-655h-147v655z" />
    <glyph glyph-name="section" unicode="&#xa7;" horiz-adv-x="1857" 
d="M1441 143q102 -70 102 -246q0 -156 -66.5 -230t-216.5 -92q-106 -12 -343 -12q-318 0 -424 35q-145 48 -171 204q-8 48 -8 184h160q0 -180 38 -222q44 -48 197 -60q47 -4 212 -4q344 0 411 50q46 34 46 159q0 123 -82 159q-38 17 -199 28l-462 33q-107 8 -144 13
q-86 14 -137 44q-116 69 -116 283q0 260 178 327q-102 72 -102 246q0 156 66.5 230t216.5 92q106 12 343 12q318 0 424 -35q146 -48 171 -204q8 -49 8 -184h-159v49q0 150 -56 189q-69 48 -391 48q-345 0 -412 -50q-46 -34 -46 -159q0 -123 83 -159q38 -17 198 -28l462 -33
q108 -8 145 -13q86 -14 137 -44q116 -69 116 -283q0 -260 -179 -327zM1193 233q84 2 113 6q71 10 103 39q46 42 46 200q0 126 -80 163q-40 18 -201 29l-463 32q-16 1 -46 4q-84 -2 -113 -6q-71 -10 -103 -39q-46 -42 -46 -200q0 -127 80 -163q39 -18 201 -29l462 -32
q10 -1 47 -4z" />
    <glyph glyph-name="dieresis" unicode="&#xa8;" 
d="M130 1149v131h279v-131h-279zM615 1149v131h278v-131h-278z" />
    <glyph glyph-name="copyright" unicode="&#xa9;" horiz-adv-x="1835" 
d="M918 1420q346 0 515 -92q127 -69 194 -190q90 -163 90 -455q0 -394 -175 -564q-113 -110 -298 -148q-120 -25 -338 -25q-203 0 -326 27q-177 40 -286 146q-175 170 -175 564q0 393 175 564q111 109 292 147q122 26 332 26zM918 1320q-183 0 -286 -22q-155 -34 -251 -128
q-150 -147 -150 -487t150 -487q94 -92 246 -126q105 -24 280 -24q188 0 291 21q159 33 257 129q150 147 150 487q0 339 -150 487q-95 94 -251 128q-105 22 -286 22zM1298 558h108v-41q0 -87 -15 -131q-23 -65 -88 -93.5t-380 -28.5q-183 0 -223 4q-147 13 -204 72
q-49 51 -61 164q-5 41 -5 179q0 137 5 179q12 112 61 163q60 63 234 75q14 1 254 1q271 0 337 -47q75 -53 78 -229h-108v25q0 112 -68 133q-64 20 -296 20q-299 0 -343 -47q-40 -43 -40 -273q0 -232 40 -274q35 -37 156 -45q28 -2 168 -2q3737 0 158 -5q105 0 159 27
q73 35 73 121v53z" />
    <glyph glyph-name="ordfeminine" unicode="&#xaa;" horiz-adv-x="914" 
d="M108 949q1 119 68 157q62 35 255 35q128 0 164 -3q104 -10 154 -49q59 -46 59 -184v-359h-107v49q-40 -44 -123 -54q-26 -3 -139 -3q-241 0 -295 37q-63 43 -63 150q0 135 113 169q46 14 231 14q126 0 145 -2q86 -9 131 -52v26q0 116 -39.5 143t-229.5 27q-126 0 -141 -4
q-71 -16 -71 -97h-112zM444 817q-138 0 -156 -3q-98 -16 -98 -91q0 -79 97 -94h159q128 0 157 6q99 18 99 94q0 69 -103 85q-23 3 -155 3z" />
    <glyph glyph-name="guillemotleft" unicode="&#xab;" horiz-adv-x="1070" 
d="M102 509l305 521l109 -73l-260 -448l260 -448l-109 -73zM539 509l305 521l109 -73l-260 -448l260 -448l-109 -73z" />
    <glyph glyph-name="logicalnot" unicode="&#xac;" 
d="M808 0v409h-740v137h887v-546h-147z" />
    <glyph glyph-name="sfthyphen" unicode="&#xad;" horiz-adv-x="682" 
d="M0 608h682v-137h-682v137z" />
    <glyph glyph-name="registered" unicode="&#xae;" horiz-adv-x="1835" 
d="M931 1420q346 0 515 -92q127 -69 194 -190q90 -163 90 -455q0 -394 -175 -564q-113 -110 -298 -148q-120 -25 -338 -25q-203 0 -326 27q-177 40 -286 146q-175 170 -175 564q0 393 175 564q111 109 292 147q122 26 332 26zM931 1320q-183 0 -286 -22q-155 -34 -251 -128
q-150 -147 -150 -487t150 -487q94 -92 246 -126q105 -24 280 -24q188 0 291 21q159 33 257 129q150 147 150 487q0 339 -150 487q-95 94 -251 128q-105 22 -286 22zM457 273v819h672q115 0 167 -23q109 -48 109 -229q0 -90 -24 -133q-31 -53 -112 -67q121 -25 121 -151v-216
h-110v160q0 102 -31.5 133.5t-134.5 31.5h-547v-325h-110zM567 688h524q112 0 149 23q51 31 51 133q0 101 -55 132q-39 22 -151 22h-518v-310z" />
    <glyph glyph-name="overscore" unicode="&#xaf;" 
d="M0 1766h1024v-132h-1024v132z" />
    <glyph glyph-name="degree" unicode="&#xb0;" horiz-adv-x="750" 
d="M378 1379q119 0 204.5 -86t85.5 -205q0 -123 -85 -209.5t-208 -86.5t-208 86t-85 209t86.5 207.5t209.5 84.5zM377 1273q-79 1 -135.5 -53.5t-56.5 -133.5q0 -80 55 -135t135 -55t135.5 55t55.5 135q0 78 -55.5 132t-133.5 55z" />
    <glyph glyph-name="plusminus" unicode="&#xb1;" horiz-adv-x="1720" 
d="M919 858h582v-121h-582v-519h-123v519h-578v121h578v507h123v-507zM1501 121v-121h-1283v121h1283z" />
    <glyph glyph-name="twosuperior" unicode="&#xb2;" horiz-adv-x="1148" 
d="M121 1050q-1 29 -1 36q0 185 88 239q79 48 364 48q315 0 388 -54q78 -58 78 -205q0 -209 -159 -241q-43 -9 -137 -16l-302 -22q-74 -5 -92 -8q-58 -10 -84 -33q-32 -29 -36 -147h812v-101h-931v61q0 107 8 150q16 86 70.5 128t214.5 54l304 22q122 9 152 22q61 29 61 124
q0 82 -25.5 114.5t-102.5 42.5q-63 8 -215 8q-202 0 -236 -10q-105 -31 -105 -174q0 -10 1 -38h-115z" />
    <glyph glyph-name="threesuperior" unicode="&#xb3;" horiz-adv-x="1148" 
d="M443 1015h326q79 0 108 27t29 105q0 77 -52 108q-40 23 -121 22q-756 -5 -136 -5q-297 0 -341 -31q-37 -26 -37 -140h-115q0 85 8 120q14 65 62 98q79 54 417 54q296 0 368 -49q66 -45 66 -185q0 -71 -14 -104q-20 -45 -78 -65q62 -21 84 -67q18 -37 18 -110
q0 -87 -14 -130q-22 -62 -82.5 -93t-325.5 -31q-358 0 -427 36q-89 46 -89 205q0 6 1 30h116q-1 -27 -1 -33q0 -101 53.5 -120t283.5 -19q-250 0 157 -7q97 -2 145 24q64 34 64 122q0 90 -25 113.5t-117 23.5h-331v101z" />
    <glyph glyph-name="acute" unicode="&#xb4;" 
d="M376 1111l-22 81l405 173l48 -136z" />
    <glyph glyph-name="mu" unicode="&#xb5;" horiz-adv-x="1493" 
d="M164 -410v1379h146v-569q0 -174 140 -242q100 -48 296 -48q197 0 297 48q140 68 140 242v569h146v-969h-146v192q-49 -137 -174 -185q-87 -33 -263 -33q-175 0 -262 34q-125 48 -174 184v-602h-146z" />
    <glyph glyph-name="mu" unicode="&#x3bc;" horiz-adv-x="1493" 
d="M164 -410v1379h146v-569q0 -174 140 -242q100 -48 296 -48q197 0 297 48q140 68 140 242v569h146v-969h-146v192q-49 -137 -174 -185q-87 -33 -263 -33q-175 0 -262 34q-125 48 -174 184v-602h-146z" />
    <glyph glyph-name="paragraph" unicode="&#xb6;" horiz-adv-x="1342" 
d="M622 -205v857q-295 0 -378 48q-121 70 -121 307q0 216 94 289q89 69 405 69h529v-1570h-132v1459h-265v-1459h-132z" />
    <glyph glyph-name="middot" unicode="&#xb7;" horiz-adv-x="535" 
d="M164 382v229h208v-229h-208z" />
    <glyph glyph-name="cedilla" unicode="&#xb8;" 
d="M351 -351l-55 87l304 175l73 -123z" />
    <glyph glyph-name="onesuperior" unicode="&#xb9;" horiz-adv-x="1148" 
d="M306 1020l-72 77l351 268h144v-819h-114v721z" />
    <glyph glyph-name="ordmasculine" unicode="&#xba;" horiz-adv-x="954" 
d="M476 1141q244 0 313 -59q75 -64 75 -246q0 -175 -75 -239q-69 -59 -313 -59q-243 0 -312 59q-75 64 -75 243q0 178 75 242q69 59 312 59zM478 1050q-206 0 -244 -47q-34 -42 -34 -163q0 -148 66 -186q43 -25 211 -25q203 0 242 47q34 41 34 161q0 149 -64 187
q-43 26 -211 26z" />
    <glyph glyph-name="guillemotright" unicode="&#xbb;" horiz-adv-x="1070" 
d="M967 509l-305 -521l-109 73l261 448l-261 448l109 73zM530 509l-305 -521l-109 73l261 448l-261 448l109 73z" />
    <glyph glyph-name="onequarter" unicode="&#xbc;" horiz-adv-x="2570" 
d="M306 1020l-72 77l351 268h144v-819h-114v721zM622 -10l1199 1385h126l-1199 -1385h-126zM1529 175v140l667 504h149v-543h133v-101h-133v-175h-114v175h-702zM1644 276h579v443z" />
    <glyph glyph-name="onehalf" unicode="&#xbd;" horiz-adv-x="2570" 
d="M306 1020l-72 77l351 268h144v-819h-114v721zM622 -10l1199 1385h126l-1199 -1385h-126zM1542 504q-1 29 -1 37q0 185 88 239q77 47 364 47q316 0 388 -54q78 -59 78 -205q0 -209 -160 -241q-43 -9 -136 -16l-302 -22q-74 -5 -92 -8q-58 -10 -84 -33q-32 -29 -36 -147
h812v-101h-931v61q0 107 8 150q16 87 71 128.5t214 53.5l304 22q122 9 152 22q61 29 61 124q0 82 -25.5 114.5t-102.5 42.5q-63 8 -215 8q-202 0 -236 -10q-105 -31 -105 -174q0 -10 1 -38h-115z" />
    <glyph glyph-name="threequarters" unicode="&#xbe;" horiz-adv-x="2570" 
d="M443 1015h326q79 0 108 27t29 105q0 77 -52 108q-40 23 -121 22q-756 -5 -136 -5q-297 0 -341 -31q-37 -26 -37 -140h-115q0 85 8 120q14 65 62 98q79 54 417 54q296 0 368 -49q66 -45 66 -185q0 -71 -14 -104q-20 -45 -78 -65q62 -21 84 -67q18 -37 18 -110
q0 -87 -14 -130q-22 -62 -82.5 -93t-325.5 -31q-358 0 -427 36q-89 46 -89 205q0 6 1 30h116q-1 -27 -1 -33q0 -101 53.5 -120t283.5 -19q-250 0 157 -7q97 -2 145 24q64 34 64 122q0 90 -25 113.5t-117 23.5h-331v101zM622 -10l1199 1385h127l-1200 -1385h-126zM1530 175
v140l666 504h149v-543h133v-101h-133v-175h-114v175h-701zM1645 276h578v443z" />
    <glyph glyph-name="questiondown" unicode="&#xbf;" horiz-adv-x="1543" 
d="M941 533v-29q0 -149 -90 -208q-55 -37 -158 -56q-84 -13 -168 -25q-131 -20 -176 -61q-53 -49 -53 -174q0 -176 81 -217q86 -44 425 -44q308 0 385 38q67 33 77 102q6 40 6 159v21h157v-86q0 -113 -11 -159q-20 -78 -86 -129q-78 -59 -252 -73q-44 -3 -268 -3
q-217 0 -272 4q-178 12 -261 63.5t-113 147.5q-21 68 -21 191q0 190 101 272q59 48 181 74l200 34q68 12 94 22q71 25 69 136h153zM968 969v-229h-208v229h208z" />
    <glyph glyph-name="Agrave" unicode="&#xc0;" horiz-adv-x="1760" 
d="M1439 307h-1117l-182 -307h-181l804 1365h233l805 -1365h-181zM1362 437l-482 814l-481 -814h963zM1023 1494l-537 104l55 145l512 -159z" />
    <glyph glyph-name="Aacute" unicode="&#xc1;" horiz-adv-x="1760" 
d="M1439 307h-1117l-182 -307h-181l804 1365h233l805 -1365h-181zM1362 437l-482 814l-481 -814h963zM749 1494l-30 90l513 159l54 -145z" />
    <glyph glyph-name="Acircumflex" unicode="&#xc2;" horiz-adv-x="1760" 
d="M1439 307h-1117l-182 -307h-181l804 1365h233l805 -1365h-181zM1362 437l-482 814l-481 -814h963zM880 1742l398 -162l-27 -86l-371 93l-371 -93l-27 86z" />
    <glyph glyph-name="Atilde" unicode="&#xc3;" horiz-adv-x="1760" 
d="M1439 307h-1117l-182 -307h-181l804 1365h233l805 -1365h-181zM1362 437l-482 814l-481 -814h963zM487 1498q5 67 31 113q61 109 193 109q60 0 178 -47q103 -41 152 -41q86 0 102 95h130q-5 -68 -30 -113q-60 -109 -193 -109q-61 0 -178 47q-102 41 -152 41
q-87 0 -102 -95h-131z" />
    <glyph glyph-name="Adieresis" unicode="&#xc4;" horiz-adv-x="1760" 
d="M1439 307h-1117l-182 -307h-181l804 1365h233l805 -1365h-181zM1362 437l-482 814l-481 -814h963zM486 1526v142h287v-142h-287zM987 1526v142h287v-142h-287z" />
    <glyph glyph-name="Aring" unicode="&#xc5;" horiz-adv-x="1760" 
d="M1439 307h-1117l-182 -307h-181l804 1365h233l805 -1365h-181zM1362 437l-482 814l-481 -814h963zM881 1781q102 0 178 -29q107 -41 107 -127q0 -87 -108 -128q-76 -29 -181 -29q-122 0 -202.5 42.5t-80.5 113.5q0 85 108 127q78 30 179 30zM880 1697q-168 0 -168 -73
q0 -72 166 -72q170 0 170 73q0 72 -168 72z" />
    <glyph glyph-name="AE" unicode="&#xc6;" horiz-adv-x="2818" 
d="M-68 0l1097 1365h1663v-137h-1169v-455h1125v-130h-1125v-506h1179v-137h-1343v299h-987l-239 -299h-201zM1124 1235l-648 -806h883v806h-235z" />
    <glyph glyph-name="Ccedilla" unicode="&#xc7;" horiz-adv-x="1918" 
d="M1621 459h160v-57q0 -215 -69 -298q-71 -86 -244 -104q-145 -15 -496 -15q-310 0 -373 6q-246 22 -341 119q-82 84 -102 273q-7 65 -7 299q0 191 3 242q9 147 44 237q69 175 311 202q151 17 589 17q210 0 280 -6q185 -15 265 -71.5t108 -165.5q16 -64 20 -202h-160v35
q0 97 -19 143q-26 65 -104 90q-107 34 -508 34q-242 0 -303 -4q-224 -16 -284 -80q-53 -56 -66 -228q-5 -56 -5 -243q0 -186 5 -243q13 -172 66 -227q62 -65 267 -80q52 -4 286 -4q393 0 524 27q90 18 124 78q29 49 29 148v78zM791 -364l-55 93l311 175l73 -123z" />
    <glyph glyph-name="Egrave" unicode="&#xc8;" horiz-adv-x="1677" 
d="M191 0v1365h1361v-137h-1197v-455h1152v-130h-1152v-506h1206v-137h-1370zM1079 1494l-537 104l55 145l512 -159z" />
    <glyph glyph-name="Eacute" unicode="&#xc9;" horiz-adv-x="1677" 
d="M191 0v1365h1361v-137h-1197v-455h1152v-130h-1152v-506h1206v-137h-1370zM714 1494l-30 90l513 159l54 -145z" />
    <glyph glyph-name="Ecircumflex" unicode="&#xca;" horiz-adv-x="1677" 
d="M191 0v1365h1361v-137h-1197v-455h1152v-130h-1152v-506h1206v-137h-1370zM880 1742l398 -162l-27 -86l-371 93l-371 -93l-27 86z" />
    <glyph glyph-name="Edieresis" unicode="&#xcb;" horiz-adv-x="1677" 
d="M191 0v1365h1361v-137h-1197v-455h1152v-130h-1152v-506h1206v-137h-1370zM485 1526v142h288v-142h-288zM986 1526v142h288v-142h-288z" />
    <glyph glyph-name="Igrave" unicode="&#xcc;" horiz-adv-x="546" 
d="M192 0v1365h164v-1365h-164zM398 1494l-428 111l55 138l403 -159z" />
    <glyph glyph-name="Iacute" unicode="&#xcd;" horiz-adv-x="546" 
d="M191 0v1365h164v-1365h-164zM155 1494l-30 90l403 159l55 -138z" />
    <glyph glyph-name="Icircumflex" unicode="&#xce;" horiz-adv-x="546" 
d="M192 0v1365h164v-1365h-164zM273 1742l303 -167l-34 -81l-269 93l-268 -93l-34 81z" />
    <glyph glyph-name="Idieresis" unicode="&#xcf;" horiz-adv-x="546" 
d="M191 0v1365h164v-1365h-164zM-15 1526v142h240v-142h-240zM320 1526v142h240v-142h-240z" />
    <glyph glyph-name="Eth" unicode="&#xd0;" horiz-adv-x="2028" 
d="M191 639h-191v130h191v596h1063q283 0 416 -80q129 -78 177 -269q31 -124 31 -333q0 -333 -89 -485q-72 -123 -236 -168q-108 -30 -299 -30h-1063v639zM355 639v-502h911q289 0 371 133q70 113 70 406q0 316 -73 429q-80 123 -380 123h-899v-459h652v-130h-652z" />
    <glyph glyph-name="Ntilde" unicode="&#xd1;" horiz-adv-x="2101" 
d="M191 0v1365h264l1290 -1248v1248h164v-1365h-264l-1290 1248v-1248h-164zM712 1498q5 67 31 113q61 109 193 109q60 0 178 -47q103 -41 152 -41q86 0 102 95h130q-5 -68 -30 -113q-60 -109 -193 -109q-61 0 -178 47q-102 41 -152 41q-87 0 -102 -95h-131z" />
    <glyph glyph-name="Ograve" unicode="&#xd2;" horiz-adv-x="2058" 
d="M1038 1380q353 0 396 -3q267 -21 365 -122q82 -84 102 -273q7 -65 7 -299q0 -235 -7 -300q-20 -189 -102 -273q-99 -101 -369 -122q-37 -3 -401 -3t-401 3q-270 21 -369 122q-82 84 -102 273q-7 65 -7 299q0 235 7 300q20 189 102 273q99 102 374 122q34 3 405 3z
M1038 1237q-293 0 -333 -2q-250 -15 -313 -82q-53 -56 -66 -228q-5 -56 -5 -243q0 -186 5 -243q13 -171 66 -227q66 -70 308 -83q11 -1 329 -1t329 1q242 13 308 83q53 56 66 227q5 57 5 243q0 189 -4 243q-14 171 -67 228q-62 66 -304 81q-47 3 -324 3zM1208 1494l-537 104
l55 145l512 -159z" />
    <glyph glyph-name="Oacute" unicode="&#xd3;" horiz-adv-x="2058" 
d="M1038 1380q353 0 396 -3q267 -21 365 -122q82 -84 102 -273q7 -65 7 -299q0 -235 -7 -300q-20 -189 -102 -273q-99 -101 -369 -122q-37 -3 -401 -3t-401 3q-270 21 -369 122q-82 84 -102 273q-7 65 -7 299q0 235 7 300q20 189 102 273q99 102 374 122q34 3 405 3z
M1038 1237q-293 0 -333 -2q-250 -15 -313 -82q-53 -56 -66 -228q-5 -56 -5 -243q0 -186 5 -243q13 -171 66 -227q66 -70 308 -83q11 -1 329 -1t329 1q242 13 308 83q53 56 66 227q5 57 5 243q0 189 -4 243q-14 171 -67 228q-62 66 -304 81q-47 3 -324 3zM863 1494l-30 90
l513 159l54 -145z" />
    <glyph glyph-name="Ocircumflex" unicode="&#xd4;" horiz-adv-x="2058" 
d="M1038 1380q353 0 396 -3q267 -21 365 -122q82 -84 102 -273q7 -65 7 -299q0 -235 -7 -300q-20 -189 -102 -273q-99 -101 -369 -122q-37 -3 -401 -3t-401 3q-270 21 -369 122q-82 84 -102 273q-7 65 -7 299q0 235 7 300q20 189 102 273q99 102 374 122q34 3 405 3z
M1038 1237q-293 0 -333 -2q-250 -15 -313 -82q-53 -56 -66 -228q-5 -56 -5 -243q0 -186 5 -243q13 -171 66 -227q66 -70 308 -83q11 -1 329 -1t329 1q242 13 308 83q53 56 66 227q5 57 5 243q0 189 -4 243q-14 171 -67 228q-62 66 -304 81q-47 3 -324 3zM1029 1742l398 -162
l-27 -86l-371 93l-371 -93l-27 86z" />
    <glyph glyph-name="Otilde" unicode="&#xd5;" horiz-adv-x="2058" 
d="M1038 1380q353 0 396 -3q267 -21 365 -122q82 -84 102 -273q7 -65 7 -299q0 -235 -7 -300q-20 -189 -102 -273q-99 -101 -369 -122q-37 -3 -401 -3t-401 3q-270 21 -369 122q-82 84 -102 273q-7 65 -7 299q0 235 7 300q20 189 102 273q99 102 374 122q34 3 405 3z
M1038 1237q-293 0 -333 -2q-250 -15 -313 -82q-53 -56 -66 -228q-5 -56 -5 -243q0 -186 5 -243q13 -171 66 -227q66 -70 308 -83q11 -1 329 -1t329 1q242 13 308 83q53 56 66 227q5 57 5 243q0 189 -4 243q-14 171 -67 228q-62 66 -304 81q-47 3 -324 3zM642 1498
q5 67 31 113q61 109 193 109q60 0 178 -47q103 -41 152 -41q86 0 102 95h130q-5 -68 -30 -113q-60 -109 -193 -109q-61 0 -178 47q-102 41 -152 41q-87 0 -102 -95h-131z" />
    <glyph glyph-name="Odieresis" unicode="&#xd6;" horiz-adv-x="2058" 
d="M1038 1380q353 0 396 -3q267 -21 365 -122q82 -84 102 -273q7 -65 7 -299q0 -235 -7 -300q-20 -189 -102 -273q-99 -101 -369 -122q-37 -3 -401 -3t-401 3q-270 21 -369 122q-82 84 -102 273q-7 65 -7 299q0 235 7 300q20 189 102 273q99 102 374 122q34 3 405 3z
M1038 1237q-293 0 -333 -2q-250 -15 -313 -82q-53 -56 -66 -228q-5 -56 -5 -243q0 -186 5 -243q13 -171 66 -227q66 -70 308 -83q11 -1 329 -1t329 1q242 13 308 83q53 56 66 227q5 57 5 243q0 189 -4 243q-14 171 -67 228q-62 66 -304 81q-47 3 -324 3zM635 1526v142h287
v-142h-287zM1136 1526v142h287v-142h-287z" />
    <glyph glyph-name="multiply" unicode="&#xd7;" horiz-adv-x="1720" 
d="M861 770l405 405l87 -87l-405 -405l405 -406l-87 -87l-405 406l-406 -406l-87 87l406 406l-406 405l87 87z" />
    <glyph glyph-name="Oslash" unicode="&#xd8;" horiz-adv-x="2058" 
d="M97 -6v161l96 62q-33 95 -40 233q-3 46 -3 238q0 228 8 297q20 186 101 270q98 101 368 122q38 3 400 3q361 0 397 -3q267 -19 369 -116l168 110v-161l-96 -62q32 -97 40 -233q2 -45 2 -238q0 -228 -8 -297q-20 -186 -101 -270q-98 -101 -368 -122q-38 -3 -400 -3
q-365 0 -397 2q-266 20 -368 117zM1716 1050l-1308 -853q74 -58 310 -69h323q298 0 322 1q237 14 302 82q53 55 66 228q5 58 5 244q0 275 -20 367zM342 315l1308 853q-70 55 -307 67q-42 2 -321 2q-281 0 -325 -3q-243 -14 -305 -81q-53 -57 -66 -227q-5 -57 -5 -243
q0 -276 21 -368z" />
    <glyph glyph-name="Ugrave" unicode="&#xd9;" horiz-adv-x="1964" 
d="M1622 1365h164v-927q0 -184 -21 -242q-51 -140 -235 -180q-144 -31 -549 -31q-439 0 -576 38q-174 48 -213 194q-15 56 -15 221v927h164v-898q0 -138 8 -173q22 -97 151 -138q96 -31 259 -33q-513 5 222 5q266 0 312 3q234 17 288 89q33 45 40 119q1 12 1 128v898z
M1154 1494l-537 104l55 145l512 -159z" />
    <glyph glyph-name="Uacute" unicode="&#xda;" horiz-adv-x="1964" 
d="M1622 1365h164v-927q0 -184 -21 -242q-51 -140 -235 -180q-144 -31 -549 -31q-439 0 -576 38q-174 48 -213 194q-15 56 -15 221v927h164v-898q0 -138 8 -173q22 -97 151 -138q96 -31 259 -33q-513 5 222 5q266 0 312 3q234 17 288 89q33 45 40 119q1 12 1 128v898z
M816 1494l-30 90l513 159l54 -145z" />
    <glyph glyph-name="Ucircumflex" unicode="&#xdb;" horiz-adv-x="1964" 
d="M1622 1365h164v-927q0 -184 -21 -242q-51 -140 -235 -180q-144 -31 -549 -31q-439 0 -576 38q-174 48 -213 194q-15 56 -15 221v927h164v-898q0 -138 8 -173q22 -97 151 -138q96 -31 259 -33q-513 5 222 5q266 0 312 3q234 17 288 89q33 45 40 119q1 12 1 128v898z
M982 1742l398 -162l-27 -86l-371 93l-371 -93l-27 86z" />
    <glyph glyph-name="Udieresis" unicode="&#xdc;" horiz-adv-x="1964" 
d="M1622 1365h164v-927q0 -184 -21 -242q-51 -140 -235 -180q-144 -31 -549 -31q-439 0 -576 38q-174 48 -213 194q-15 56 -15 221v927h164v-898q0 -138 8 -173q22 -97 151 -138q96 -31 259 -33q-513 5 222 5q266 0 312 3q234 17 288 89q33 45 40 119q1 12 1 128v898z
M587 1526v142h288v-142h-288zM1088 1526v142h288v-142h-288z" />
    <glyph glyph-name="Yacute" unicode="&#xdd;" horiz-adv-x="1666" 
d="M833 709l650 656h224l-792 -791v-574h-164v574l-792 791h224zM695 1494l-30 90l513 159l54 -145z" />
    <glyph glyph-name="Thorn" unicode="&#xde;" horiz-adv-x="1835" 
d="M191 0v1365h164v-204h939q135 0 193 -10q112 -18 171 -80q81 -84 81 -313q0 -125 -14 -189q-24 -104 -94 -160q-95 -76 -301 -76h-975v-333h-164zM355 470h853q202 0 269 40q91 55 91 238q0 138 -39 193q-59 83 -288 83h-886v-554z" />
    <glyph glyph-name="germandbls" unicode="&#xdf;" horiz-adv-x="1530" 
d="M164 0v947q0 132 11 191q21 107 88 163q80 66 253 84q71 7 272 7q312 0 407 -49q104 -54 104 -224q0 -108 -40 -158t-145 -77q213 -27 258 -190q21 -77 21 -235q0 -136 -11 -195q-19 -107 -83 -172q-105 -106 -375 -106q-271 0 -367.5 79.5t-96.5 257.5q0 17 2 54h146
q1 -24 2 -31q8 -116 21 -143q33 -66 124 -85q44 -9 158 -9q216 0 275 76q52 67 52 300q0 199 -72 267q-69 65 -247 65h-380v130h380q109 0 150 23q57 32 57 129q0 102 -46 131q-61 39 -339 39q-301 0 -367 -63t-66 -289v-917h-146z" />
    <glyph glyph-name="agrave" unicode="&#xe0;" horiz-adv-x="1466" 
d="M167 688q3 178 105 236.5t418 58.5q205 0 268 -6q170 -16 251 -79q63 -49 82 -137q11 -49 11 -164v-597h-146v131q-46 -111 -197 -137q-47 -8 -257 -8q-204 0 -246 3q-168 11 -235 58q-98 69 -98 242q0 174 84 232q93 64 471 64q223 0 265 -6q165 -23 213 -127v102
q0 101 -7 140q-15 82 -66 117q-72 49 -388 49q-208 0 -243 -8q-128 -30 -130 -164h-155zM718 462q-240 0 -278 -7q-167 -31 -167 -172q0 -127 97 -154q71 -20 337 -20q256 0 334 26q117 39 117 160q0 93 -80 134q-64 33 -360 33zM890 1111l-431 118l48 136l405 -173z" />
    <glyph glyph-name="aacute" unicode="&#xe1;" horiz-adv-x="1466" 
d="M167 688q3 178 105 236.5t418 58.5q205 0 268 -6q170 -16 251 -79q63 -49 82 -137q11 -49 11 -164v-597h-146v131q-46 -111 -197 -137q-47 -8 -257 -8q-204 0 -246 3q-168 11 -235 58q-98 69 -98 242q0 174 84 232q93 64 471 64q223 0 265 -6q165 -23 213 -127v102
q0 101 -7 140q-15 82 -66 117q-72 49 -388 49q-208 0 -243 -8q-128 -30 -130 -164h-155zM718 462q-240 0 -278 -7q-167 -31 -167 -172q0 -127 97 -154q71 -20 337 -20q256 0 334 26q117 39 117 160q0 93 -80 134q-64 33 -360 33zM604 1111l-22 81l405 173l48 -136z" />
    <glyph glyph-name="acircumflex" unicode="&#xe2;" horiz-adv-x="1466" 
d="M167 688q3 178 105 236.5t418 58.5q205 0 268 -6q170 -16 251 -79q63 -49 82 -137q11 -49 11 -164v-597h-146v131q-46 -111 -197 -137q-47 -8 -257 -8q-204 0 -246 3q-168 11 -235 58q-98 69 -98 242q0 174 84 232q93 64 471 64q223 0 265 -6q165 -23 213 -127v102
q0 101 -7 140q-15 82 -66 117q-72 49 -388 49q-208 0 -243 -8q-128 -30 -130 -164h-155zM718 462q-240 0 -278 -7q-167 -31 -167 -172q0 -127 97 -154q71 -20 337 -20q256 0 334 26q117 39 117 160q0 93 -80 134q-64 33 -360 33zM733 1371l333 -186l-20 -81l-313 112
l-313 -112l-20 81z" />
    <glyph glyph-name="atilde" unicode="&#xe3;" horiz-adv-x="1466" 
d="M167 688q3 178 105 236.5t418 58.5q205 0 268 -6q170 -16 251 -79q63 -49 82 -137q11 -49 11 -164v-597h-146v131q-46 -111 -197 -137q-47 -8 -257 -8q-204 0 -246 3q-168 11 -235 58q-98 69 -98 242q0 174 84 232q93 64 471 64q223 0 265 -6q165 -23 213 -127v102
q0 101 -7 140q-15 82 -66 117q-72 49 -388 49q-208 0 -243 -8q-128 -30 -130 -164h-155zM718 462q-240 0 -278 -7q-167 -31 -167 -172q0 -127 97 -154q71 -20 337 -20q256 0 334 26q117 39 117 160q0 93 -80 134q-64 33 -360 33zM945 1315h145q-12 -71 -46 -119
q-56 -78 -151 -78q-55 0 -202 61q-53 22 -88 22q-62 0 -82 -69h-146q36 197 197 197q54 0 202 -61q53 -22 88 -22q62 0 83 69z" />
    <glyph glyph-name="adieresis" unicode="&#xe4;" horiz-adv-x="1466" 
d="M167 688q3 178 105 236.5t418 58.5q205 0 268 -6q170 -16 251 -79q63 -49 82 -137q11 -49 11 -164v-597h-146v131q-46 -111 -197 -137q-47 -8 -257 -8q-204 0 -246 3q-168 11 -235 58q-98 69 -98 242q0 174 84 232q93 64 471 64q223 0 265 -6q165 -23 213 -127v102
q0 101 -7 140q-15 82 -66 117q-72 49 -388 49q-208 0 -243 -8q-128 -30 -130 -164h-155zM718 462q-240 0 -278 -7q-167 -31 -167 -172q0 -127 97 -154q71 -20 337 -20q256 0 334 26q117 39 117 160q0 93 -80 134q-64 33 -360 33zM351 1149v131h279v-131h-279zM836 1149v131
h278v-131h-278z" />
    <glyph glyph-name="aring" unicode="&#xe5;" horiz-adv-x="1466" 
d="M167 688q3 178 105 236.5t418 58.5q205 0 268 -6q170 -16 251 -79q63 -49 82 -137q11 -49 11 -164v-597h-146v131q-46 -111 -197 -137q-47 -8 -257 -8q-204 0 -246 3q-168 11 -235 58q-98 69 -98 242q0 174 84 232q93 64 471 64q223 0 265 -6q165 -23 213 -127v102
q0 101 -7 140q-15 82 -66 117q-72 49 -388 49q-208 0 -243 -8q-128 -30 -130 -164h-155zM718 462q-240 0 -278 -7q-167 -31 -167 -172q0 -127 97 -154q71 -20 337 -20q256 0 334 26q117 39 117 160q0 93 -80 134q-64 33 -360 33zM733 1413q275 0 275 -155t-278 -155
q-101 0 -172 29q-99 40 -99 126q0 155 274 155zM733 1330q-156 0 -156 -72t155 -72q158 0 158 72t-157 72z" />
    <glyph glyph-name="ae" unicode="&#xe6;" horiz-adv-x="2506" 
d="M1234 802q61 125 234 162q87 19 299 19q196 0 287 -16q176 -30 247 -126q77 -105 75 -384h-1074q1 -108 8 -147q24 -135 145 -176q74 -25 318 -25q213 0 273 13q161 34 178 168h149q-17 -228 -259 -279q-117 -25 -345 -25q-210 0 -293 17q-166 34 -236 151
q-39 -69 -109 -113q-88 -55 -431 -55q-195 0 -245 3q-168 12 -234 58q-98 68 -98 242q0 175 84 232q94 64 471 64q225 0 265 -6q165 -23 213 -126v101q0 101 -7 140q-15 82 -66 117q-72 49 -388 49q-208 0 -243 -8q-128 -30 -130 -164h-155q3 178 105 236.5t420 58.5
q349 0 444 -60q69 -43 98 -121zM718 462q-241 0 -279 -7q-166 -32 -166 -173q0 -126 97 -153q71 -20 337 -20q256 0 334 26q117 39 117 160q0 92 -80 134q-63 33 -360 33zM2222 576q-1 102 -29 156q-49 95 -192 119q-54 9 -238 9q-269 0 -353 -45q-101 -54 -108 -239h920z
" />
    <glyph glyph-name="ccedilla" unicode="&#xe7;" horiz-adv-x="1461" 
d="M1352 353q-10 -164 -74 -241q-72 -87 -252 -113q-86 -13 -285 -13q-385 0 -490 96q-114 104 -114 402q0 299 114 403q105 96 489 96q205 0 290 -14q178 -30 248 -129q53 -75 59 -211h-159v20q0 164 -180 196q-84 15 -272 15q-216 0 -284 -23q-100 -34 -133 -145
q-19 -66 -19 -208q0 -233 71 -304q53 -53 183 -66q45 -5 200 -5q238 0 309 25q80 28 111 82q27 46 29 137h159zM550 -351l-55 87l304 175l73 -123z" />
    <glyph glyph-name="egrave" unicode="&#xe8;" horiz-adv-x="1493" 
d="M290 457q1 -108 8 -147q24 -135 145 -176q74 -25 318 -25q213 0 273 13q160 34 178 168h149q-17 -229 -260 -279q-117 -25 -348 -25q-387 0 -497 96q-119 104 -119 402q0 299 119 403q109 96 495 96q198 0 289 -15q178 -30 249 -127q77 -105 75 -384h-1074zM1210 576
q-1 102 -29 156q-49 95 -192 119q-54 9 -238 9q-269 0 -353 -45q-101 -54 -108 -239h920zM904 1111l-431 118l48 136l405 -173z" />
    <glyph glyph-name="eacute" unicode="&#xe9;" horiz-adv-x="1493" 
d="M290 457q1 -108 8 -147q24 -135 145 -176q74 -25 318 -25q213 0 273 13q160 34 178 168h149q-17 -229 -260 -279q-117 -25 -348 -25q-387 0 -497 96q-119 104 -119 402q0 299 119 403q109 96 495 96q198 0 289 -15q178 -30 249 -127q77 -105 75 -384h-1074zM1210 576
q-1 102 -29 156q-49 95 -192 119q-54 9 -238 9q-269 0 -353 -45q-101 -54 -108 -239h920zM625 1111l-22 81l405 173l48 -136z" />
    <glyph glyph-name="ecircumflex" unicode="&#xea;" horiz-adv-x="1493" 
d="M290 457q1 -108 8 -147q24 -135 145 -176q74 -25 318 -25q213 0 273 13q160 34 178 168h149q-17 -229 -260 -279q-117 -25 -348 -25q-387 0 -497 96q-119 104 -119 402q0 299 119 403q109 96 495 96q198 0 289 -15q178 -30 249 -127q77 -105 75 -384h-1074zM1210 576
q-1 102 -29 156q-49 95 -192 119q-54 9 -238 9q-269 0 -353 -45q-101 -54 -108 -239h920zM751 1371l333 -186l-20 -81l-313 112l-313 -112l-20 81z" />
    <glyph glyph-name="edieresis" unicode="&#xeb;" horiz-adv-x="1493" 
d="M290 457q1 -108 8 -147q24 -135 145 -176q74 -25 318 -25q213 0 273 13q160 34 178 168h149q-17 -229 -260 -279q-117 -25 -348 -25q-387 0 -497 96q-119 104 -119 402q0 299 119 403q109 96 495 96q198 0 289 -15q178 -30 249 -127q77 -105 75 -384h-1074zM1210 576
q-1 102 -29 156q-49 95 -192 119q-54 9 -238 9q-269 0 -353 -45q-101 -54 -108 -239h920zM372 1149v131h279v-131h-279zM857 1149v131h278v-131h-278z" />
    <glyph glyph-name="igrave" unicode="&#xec;" horiz-adv-x="474" 
d="M164 0v969h146v-969h-146zM347 1111l-357 122l50 132l335 -173z" />
    <glyph glyph-name="iacute" unicode="&#xed;" horiz-adv-x="474" 
d="M164 0v969h146v-969h-146zM131 1111l-25 81l334 173l51 -132z" />
    <glyph glyph-name="icircumflex" unicode="&#xee;" horiz-adv-x="474" 
d="M164 0v969h146v-969h-146zM237 1371l279 -186l-27 -81l-252 112l-251 -112l-27 81z" />
    <glyph glyph-name="idieresis" unicode="&#xef;" horiz-adv-x="473" 
d="M164 0v969h146v-969h-146zM-35 1149v131h224v-131h-224zM284 1149v131h224v-131h-224z" />
    <glyph glyph-name="eth" unicode="&#xf0;" horiz-adv-x="1533" 
d="M842 1184l-151 -114l-72 88l137 103q-50 50 -170 148l94 92q80 -61 187 -160l160 119l75 -82l-153 -117q156 -146 280 -310q168 -222 168 -492q0 -274 -119 -377q-111 -96 -511 -96q-401 0 -511 96q-119 104 -119 402t119 402q111 97 468 97q226 0 350 -49
q-78 90 -232 250zM751 860q-148 0 -212 -8q-140 -18 -189 -79q-60 -75 -60 -289q0 -234 75 -304.5t402 -70.5q158 0 220 8q147 17 197 79q60 74 60 268q0 221 -96 312q-89 84 -397 84z" />
    <glyph glyph-name="ntilde" unicode="&#xf1;" horiz-adv-x="1493" 
d="M164 0v969h146v-192q54 152 211 196q82 23 306 23q157 0 235 -16q154 -32 214 -123q53 -81 53 -247v-610h-146v603q0 140 -54 188q-76 68 -342 68q-219 0 -319 -41q-158 -65 -158 -249v-569h-146zM959 1315h145q-12 -71 -46 -119q-56 -78 -151 -78q-55 0 -202 61
q-53 22 -88 22q-62 0 -82 -69h-146q36 197 197 197q54 0 202 -61q53 -22 88 -22q62 0 83 69z" />
    <glyph glyph-name="ograve" unicode="&#xf2;" horiz-adv-x="1533" 
d="M766 983q402 0 512 -96q119 -104 119 -409q0 -292 -119 -396q-109 -96 -511 -96q-401 0 -511 96q-119 104 -119 402t119 403q108 96 510 96zM770 860q-161 0 -222 -7q-148 -18 -198 -80q-60 -74 -60 -289q0 -234 75 -304.5t402 -70.5q158 0 220 7q147 18 197 80
q60 74 60 284q0 239 -75 309.5t-399 70.5zM903 1111l-431 118l48 136l405 -173z" />
    <glyph glyph-name="oacute" unicode="&#xf3;" horiz-adv-x="1533" 
d="M766 983q402 0 512 -96q119 -104 119 -409q0 -292 -119 -396q-109 -96 -511 -96q-401 0 -511 96q-119 104 -119 402t119 403q108 96 510 96zM770 860q-161 0 -222 -7q-148 -18 -198 -80q-60 -74 -60 -289q0 -234 75 -304.5t402 -70.5q158 0 220 7q147 18 197 80
q60 74 60 284q0 239 -75 309.5t-399 70.5zM644 1111l-22 81l405 173l48 -136z" />
    <glyph glyph-name="ocircumflex" unicode="&#xf4;" horiz-adv-x="1533" 
d="M766 983q402 0 512 -96q119 -104 119 -409q0 -292 -119 -396q-109 -96 -511 -96q-401 0 -511 96q-119 104 -119 402t119 403q108 96 510 96zM770 860q-161 0 -222 -7q-148 -18 -198 -80q-60 -74 -60 -289q0 -234 75 -304.5t402 -70.5q158 0 220 7q147 18 197 80
q60 74 60 284q0 239 -75 309.5t-399 70.5zM767 1371l333 -186l-20 -81l-313 112l-313 -112l-20 81z" />
    <glyph glyph-name="otilde" unicode="&#xf5;" horiz-adv-x="1533" 
d="M766 983q402 0 512 -96q119 -104 119 -409q0 -292 -119 -396q-109 -96 -511 -96q-401 0 -511 96q-119 104 -119 402t119 403q108 96 510 96zM770 860q-161 0 -222 -7q-148 -18 -198 -80q-60 -74 -60 -289q0 -234 75 -304.5t402 -70.5q158 0 220 7q147 18 197 80
q60 74 60 284q0 239 -75 309.5t-399 70.5zM986 1315h145q-12 -71 -46 -119q-56 -78 -151 -78q-55 0 -202 61q-53 22 -88 22q-62 0 -82 -69h-146q36 197 197 197q54 0 202 -61q53 -22 88 -22q62 0 83 69z" />
    <glyph glyph-name="odieresis" unicode="&#xf6;" horiz-adv-x="1533" 
d="M766 983q402 0 512 -96q119 -104 119 -409q0 -292 -119 -396q-109 -96 -511 -96q-401 0 -511 96q-119 104 -119 402t119 403q108 96 510 96zM770 860q-161 0 -222 -7q-148 -18 -198 -80q-60 -74 -60 -289q0 -234 75 -304.5t402 -70.5q158 0 220 7q147 18 197 80
q60 74 60 284q0 239 -75 309.5t-399 70.5zM385 1149v131h279v-131h-279zM870 1149v131h278v-131h-278z" />
    <glyph glyph-name="divide" unicode="&#xf7;" horiz-adv-x="1720" 
d="M216 758h1289v-117h-1289v117zM758 1138h205v-222h-205v222zM756 483h205v-222h-205v222z" />
    <glyph glyph-name="oslash" unicode="&#xf8;" horiz-adv-x="1533" 
d="M187 172q-51 111 -51 312q0 298 119 403q109 96 512 96q186 0 272 -11q172 -22 247 -95l158 102v-125l-97 -63q49 -111 49 -306q0 -298 -119 -403q-109 -96 -513 -96q-184 0 -268 11q-166 21 -246 90l-151 -97v126zM318 256l842 541q-90 63 -390 63q-161 0 -222 -7
q-149 -18 -199 -80q-60 -74 -60 -293q0 -140 29 -224zM1216 708l-839 -539q91 -60 384 -60q160 0 222 7q150 18 200 80q60 74 60 291q0 134 -27 221z" />
    <glyph glyph-name="ugrave" unicode="&#xf9;" horiz-adv-x="1493" 
d="M1329 969v-969h-146v192q-54 -152 -211 -196q-82 -23 -306 -23q-155 0 -235 16q-155 31 -215 123q-52 81 -52 247v610h146v-603q0 -140 54 -188q76 -68 342 -68q219 0 320 41q157 65 157 249v569h146zM883 1111l-431 118l48 136l405 -173z" />
    <glyph glyph-name="uacute" unicode="&#xfa;" horiz-adv-x="1493" 
d="M1329 969v-969h-146v192q-54 -152 -211 -196q-82 -23 -306 -23q-155 0 -235 16q-155 31 -215 123q-52 81 -52 247v610h146v-603q0 -140 54 -188q76 -68 342 -68q219 0 320 41q157 65 157 249v569h146zM624 1111l-22 81l405 173l48 -136z" />
    <glyph glyph-name="ucircumflex" unicode="&#xfb;" horiz-adv-x="1493" 
d="M1329 969v-969h-146v192q-54 -152 -211 -196q-82 -23 -306 -23q-155 0 -235 16q-155 31 -215 123q-52 81 -52 247v610h146v-603q0 -140 54 -188q76 -68 342 -68q219 0 320 41q157 65 157 249v569h146zM747 1371l333 -186l-20 -81l-313 112l-313 -112l-20 81z" />
    <glyph glyph-name="udieresis" unicode="&#xfc;" horiz-adv-x="1493" 
d="M1329 969v-969h-146v192q-54 -152 -211 -196q-82 -23 -306 -23q-155 0 -235 16q-155 31 -215 123q-52 81 -52 247v610h146v-603q0 -140 54 -188q76 -68 342 -68q219 0 320 41q157 65 157 249v569h146zM365 1149v131h279v-131h-279zM850 1149v131h278v-131h-278z" />
    <glyph glyph-name="yacute" unicode="&#xfd;" horiz-adv-x="1162" 
d="M-34 969h160l482 -873l434 873h154l-522 -1047q-68 -136 -84 -164q-55 -96 -112 -143q-101 -83 -281 -83q-19 0 -59 2v121q30 -1 46 -1q137 0 212 71q50 47 125 197l39 78h-55zM472 1111l-22 81l405 173l48 -136z" />
    <glyph glyph-name="thorn" unicode="&#xfe;" horiz-adv-x="1552" 
d="M164 1379h146v-553q54 109 215 141q80 16 271 16q392 0 501 -96q119 -104 119 -402q0 -299 -119 -403q-110 -96 -502 -96q-192 0 -271 16q-160 33 -214 142v-554h-146v1789zM786 860q-158 0 -220 -7q-147 -18 -197 -80q-60 -74 -60 -284q0 -239 75 -309.5t399 -70.5
q159 0 222 7q148 18 198 80q60 74 60 289q0 234 -75 304.5t-402 70.5z" />
    <glyph glyph-name="ydieresis" unicode="&#xff;" horiz-adv-x="1162" 
d="M-34 969h160l482 -873l434 873h154l-522 -1047q-68 -136 -84 -164q-55 -96 -112 -143q-101 -83 -281 -83q-19 0 -59 2v121q30 -1 46 -1q137 0 212 71q50 47 125 197l39 78h-55zM199 1149v131h279v-131h-279zM684 1149v131h278v-131h-278z" />
    <glyph glyph-name="Amacron" unicode="&#x100;" horiz-adv-x="1760" 
d="M1439 307h-1117l-182 -307h-181l804 1365h233l805 -1365h-181zM1362 437l-482 814l-481 -814h963zM474 1650h811v-114h-811v114z" />
    <glyph glyph-name="amacron" unicode="&#x101;" horiz-adv-x="1466" 
d="M167 688q3 178 105 236.5t418 58.5q205 0 268 -6q170 -16 251 -79q63 -49 82 -137q11 -49 11 -164v-597h-146v131q-46 -111 -197 -137q-47 -8 -257 -8q-204 0 -246 3q-168 11 -235 58q-98 69 -98 242q0 174 84 232q93 64 471 64q223 0 265 -6q165 -23 213 -127v102
q0 101 -7 140q-15 82 -66 117q-72 49 -388 49q-208 0 -243 -8q-128 -30 -130 -164h-155zM718 462q-240 0 -278 -7q-167 -31 -167 -172q0 -127 97 -154q71 -20 337 -20q256 0 334 26q117 39 117 160q0 93 -80 134q-64 33 -360 33zM355 1268h757v-104h-757v104z" />
    <glyph glyph-name="Abreve" unicode="&#x102;" horiz-adv-x="1760" 
d="M1439 307h-1117l-182 -307h-181l804 1365h233l805 -1365h-181zM1362 437l-482 814l-481 -814h963zM491 1742h129q41 -119 260 -119t260 119h129q-45 -243 -389 -243t-389 243z" />
    <glyph glyph-name="abreve" unicode="&#x103;" horiz-adv-x="1466" 
d="M167 688q3 178 105 236.5t418 58.5q205 0 268 -6q170 -16 251 -79q63 -49 82 -137q11 -49 11 -164v-597h-146v131q-46 -111 -197 -137q-47 -8 -257 -8q-204 0 -246 3q-168 11 -235 58q-98 69 -98 242q0 174 84 232q93 64 471 64q223 0 265 -6q165 -23 213 -127v102
q0 101 -7 140q-15 82 -66 117q-72 49 -388 49q-208 0 -243 -8q-128 -30 -130 -164h-155zM718 462q-240 0 -278 -7q-167 -31 -167 -172q0 -127 97 -154q71 -20 337 -20q256 0 334 26q117 39 117 160q0 93 -80 134q-64 33 -360 33zM383 1365h127q35 -138 223 -138t223 138h127
q-40 -267 -350 -267t-350 267z" />
    <glyph glyph-name="Aogonek" unicode="&#x104;" horiz-adv-x="1760" 
d="M-41 0l804 1365h233l805 -1365q-29 -52 -29 -108q0 -103 142 -128l-52 -130q-147 34 -198 113q-28 43 -28 89q0 82 74 164h-90l-181 307h-1117l-182 -307h-181zM1362 437l-482 814l-481 -814h963z" />
    <glyph glyph-name="aogonek" unicode="&#x105;" horiz-adv-x="1466" 
d="M1357 -366q-204 54 -204 203q0 82 67 163h-64v131q-46 -110 -197 -136q-49 -9 -257 -9q-204 0 -246 3q-168 11 -235 58q-98 69 -98 242q0 175 84 232q94 64 471 64q223 0 265 -6q165 -23 213 -127v102q0 101 -7 140q-14 81 -66 117q-71 49 -388 49q-208 0 -243 -8
q-128 -30 -130 -164h-155q3 178 105 236.5t418 58.5q201 0 268 -6q172 -17 251 -78q63 -49 82 -137q11 -50 11 -165v-597q-27 -53 -27 -107q0 -104 129 -129zM718 462q-240 0 -278 -7q-167 -31 -167 -172q0 -127 97 -154q71 -20 337 -20q256 0 334 26q117 39 117 160
q0 92 -80 134q-63 33 -360 33z" />
    <glyph glyph-name="Cacute" unicode="&#x106;" horiz-adv-x="1918" 
d="M1621 459h160v-57q0 -215 -69 -298q-71 -86 -244 -104q-145 -15 -496 -15q-310 0 -373 6q-246 22 -341 119q-82 84 -102 273q-7 65 -7 299q0 191 3 242q9 147 44 237q69 175 311 202q151 17 589 17q210 0 280 -6q185 -15 265 -71.5t108 -165.5q16 -64 20 -202h-160v35
q0 97 -19 143q-26 65 -104 90q-107 34 -508 34q-242 0 -303 -4q-224 -16 -284 -80q-53 -56 -66 -228q-5 -56 -5 -243q0 -186 5 -243q13 -172 66 -227q62 -65 267 -80q52 -4 286 -4q393 0 524 27q90 18 124 78q29 49 29 148v78zM834 1494l-30 90l513 159l54 -145z" />
    <glyph glyph-name="cacute" unicode="&#x107;" horiz-adv-x="1461" 
d="M1352 353q-10 -164 -74 -241q-72 -87 -252 -113q-86 -13 -285 -13q-385 0 -490 96q-114 104 -114 402q0 299 114 403q105 96 489 96q205 0 290 -14q178 -30 248 -129q53 -75 59 -211h-159v20q0 164 -180 196q-84 15 -272 15q-216 0 -284 -23q-100 -34 -133 -145
q-19 -66 -19 -208q0 -233 71 -304q53 -53 183 -66q45 -5 200 -5q238 0 309 25q80 28 111 82q27 46 29 137h159zM622 1111l-22 81l405 173l48 -136z" />
    <glyph glyph-name="Ccaron" unicode="&#x10c;" horiz-adv-x="1918" 
d="M1621 459h160v-57q0 -215 -69 -298q-71 -86 -244 -104q-145 -15 -496 -15q-310 0 -373 6q-246 22 -341 119q-82 84 -102 273q-7 65 -7 299q0 191 3 242q9 147 44 237q69 175 311 202q151 17 589 17q210 0 280 -6q185 -15 265 -71.5t108 -165.5q16 -64 20 -202h-160v35
q0 97 -19 143q-26 65 -104 90q-107 34 -508 34q-242 0 -303 -4q-224 -16 -284 -80q-53 -56 -66 -228q-5 -56 -5 -243q0 -186 5 -243q13 -172 66 -227q62 -65 267 -80q52 -4 286 -4q393 0 524 27q90 18 124 78q29 49 29 148v78zM986 1494l-398 162l27 86l371 -93l371 93
l27 -86z" />
    <glyph glyph-name="ccaron" unicode="&#x10d;" horiz-adv-x="1461" 
d="M1352 353q-10 -164 -74 -241q-72 -87 -252 -113q-86 -13 -285 -13q-385 0 -490 96q-114 104 -114 402q0 299 114 403q105 96 489 96q205 0 290 -14q178 -30 248 -129q53 -75 59 -211h-159v20q0 164 -180 196q-84 15 -272 15q-216 0 -284 -23q-100 -34 -133 -145
q-19 -66 -19 -208q0 -233 71 -304q53 -53 183 -66q45 -5 200 -5q238 0 309 25q80 28 111 82q27 46 29 137h159zM745 1104l-333 186l20 81l313 -112l313 112l20 -81z" />
    <glyph glyph-name="Dcaron" unicode="&#x10e;" horiz-adv-x="2028" 
d="M191 0v1365h1062q284 0 417 -80q129 -78 177 -269q31 -124 31 -333q0 -333 -89 -485q-73 -124 -237 -168q-108 -30 -299 -30h-1062zM355 137h911q289 0 371 133q70 113 70 405q0 317 -73 430q-80 123 -380 123h-899v-1091zM959 1494l-398 162l27 86l371 -93l371 93
l27 -86z" />
    <glyph glyph-name="dcaron" unicode="&#x10f;" horiz-adv-x="1670" 
d="M1389 0h-146v143q-54 -109 -215 -141q-79 -16 -271 -16q-391 0 -501 96q-119 104 -119 402q0 299 119 403q109 96 502 96q192 0 270 -16q160 -32 215 -142v554h146v-1379zM770 860q-161 0 -221 -7q-148 -18 -199 -80q-60 -74 -60 -289q0 -234 75 -304.5t402 -70.5
q158 0 220 7q147 18 197 80q60 74 60 284q0 239 -75 309.5t-399 70.5zM1505 1379h166v-140q0 -205 -175 -205h-11v88q78 4 78 93v24h-58v140z" />
    <glyph glyph-name="Dslash" unicode="&#x110;" horiz-adv-x="2028" 
d="M191 639h-191v130h191v596h1063q283 0 416 -80q129 -78 177 -269q31 -124 31 -333q0 -333 -89 -485q-72 -123 -236 -168q-108 -30 -299 -30h-1063v639zM355 639v-502h911q289 0 371 133q70 113 70 406q0 316 -73 429q-80 123 -380 123h-899v-459h652v-130h-652z" />
    <glyph glyph-name="dcroat" unicode="&#x111;" horiz-adv-x="1552" 
d="M1243 1113h-366v116h366v150h146v-150h164v-116h-164v-1113h-146v143q-54 -109 -215 -141q-79 -16 -271 -16q-391 0 -501 96q-119 104 -119 402q0 299 119 403q109 96 502 96q192 0 270 -16q160 -33 215 -142v288zM769 860q-160 0 -221 -7q-148 -18 -198 -80
q-60 -74 -60 -289q0 -234 75 -304.5t402 -70.5q158 0 220 7q147 18 197 80q60 74 60 284q0 239 -75 309.5t-400 70.5z" />
    <glyph glyph-name="Emacron" unicode="&#x112;" horiz-adv-x="1677" 
d="M191 0v1365h1361v-137h-1197v-455h1152v-130h-1152v-506h1206v-137h-1370zM474 1650h811v-114h-811v114z" />
    <glyph glyph-name="emacron" unicode="&#x113;" horiz-adv-x="1493" 
d="M290 457q1 -108 8 -147q24 -135 145 -176q74 -25 318 -25q213 0 273 13q160 34 178 168h149q-17 -229 -260 -279q-117 -25 -348 -25q-387 0 -497 96q-119 104 -119 402q0 299 119 403q109 96 495 96q198 0 289 -15q178 -30 249 -127q77 -105 75 -384h-1074zM1210 576
q-1 102 -29 156q-49 95 -192 119q-54 9 -238 9q-269 0 -353 -45q-101 -54 -108 -239h920zM376 1268h757v-104h-757v104z" />
    <glyph glyph-name="Edotaccent" unicode="&#x116;" horiz-adv-x="1677" 
d="M191 0v1365h1361v-137h-1197v-455h1152v-130h-1152v-506h1206v-137h-1370zM736 1526v142h288v-142h-288z" />
    <glyph glyph-name="edotaccent" unicode="&#x117;" horiz-adv-x="1493" 
d="M290 457q1 -108 8 -147q24 -135 145 -176q74 -25 318 -25q213 0 273 13q160 34 178 168h149q-17 -229 -260 -279q-117 -25 -348 -25q-387 0 -497 96q-119 104 -119 402q0 299 119 403q109 96 495 96q198 0 289 -15q178 -30 249 -127q77 -105 75 -384h-1074zM1210 576
q-1 102 -29 156q-49 95 -192 119q-54 9 -238 9q-269 0 -353 -45q-101 -54 -108 -239h920zM615 1149v131h279v-131h-279z" />
    <glyph glyph-name="Eogonek" unicode="&#x118;" horiz-adv-x="1677" 
d="M191 0v1365h1361v-137h-1197v-455h1152v-130h-1152v-506h1206v-137q-29 -56 -29 -105q0 -107 142 -131l-52 -130q-149 34 -199 113q-27 43 -27 89q0 83 74 164h-1279z" />
    <glyph glyph-name="eogonek" unicode="&#x119;" horiz-adv-x="1493" 
d="M1212 290h149q-5 -76 -27.5 -120.5t-80.5 -95.5t-75 -75q-30 -42 -30 -96q0 -114 135 -139l-47 -130q-205 54 -205 205q0 88 80 173q-130 -26 -354 -26q-391 0 -501 96q-119 104 -119 403q0 298 119 402q109 96 495 96q198 0 289 -15q178 -30 249 -127q77 -105 75 -384
h-1074q1 -108 8 -147q24 -135 145 -176q74 -25 318 -25q213 0 273 13q160 34 178 168zM1210 576q-1 102 -29 156q-49 95 -192 119q-54 9 -238 9q-269 0 -353 -45q-101 -54 -108 -239h920z" />
    <glyph glyph-name="Ecaron" unicode="&#x11a;" horiz-adv-x="1677" 
d="M191 0v1365h1361v-137h-1197v-455h1152v-130h-1152v-506h1206v-137h-1370zM880 1494l-398 162l27 86l371 -93l371 93l27 -86z" />
    <glyph glyph-name="ecaron" unicode="&#x11b;" horiz-adv-x="1493" 
d="M290 457q1 -108 8 -147q24 -135 145 -176q74 -25 318 -25q213 0 273 13q160 34 178 168h149q-17 -229 -260 -279q-117 -25 -348 -25q-387 0 -497 96q-119 104 -119 402q0 299 119 403q109 96 495 96q198 0 289 -15q178 -30 249 -127q77 -105 75 -384h-1074zM1210 576
q-1 102 -29 156q-49 95 -192 119q-54 9 -238 9q-269 0 -353 -45q-101 -54 -108 -239h920zM754 1104l-333 186l20 81l313 -112l313 112l20 -81z" />
    <glyph glyph-name="Gbreve" unicode="&#x11e;" horiz-adv-x="2011" 
d="M978 674h891q-1 -218 -9 -309q-28 -316 -286 -359q-126 -21 -537 -21q-370 0 -405 3q-274 20 -373 122q-82 84 -102 273q-7 65 -7 300q0 234 7 299q20 189 102 273q100 104 397 124q19 1 430 1q265 0 322 -4q214 -14 307 -77q131 -88 140 -335h-162q-2 97 -12 135.5
t-39 66.5q-63 59 -241 71h-258q-339 0 -368 -1q-288 -11 -358 -61q-74 -53 -91 -232q-5 -48 -5 -260q0 -187 5 -244q13 -172 66 -227q63 -66 278 -81q44 -3 298 -3q365 0 347 -1q259 13 326 86q47 52 61 154q4 31 7 170h-731v137zM630 1742h129q41 -119 260 -119t260 119
h129q-45 -243 -389 -243t-389 243z" />
    <glyph glyph-name="gbreve" unicode="&#x11f;" horiz-adv-x="1552" 
d="M1389 969v-874q0 -273 -54 -375q-66 -125 -252 -161q-88 -17 -314 -17q-381 0 -492 84q-117 89 -117 249v20h149v-20q0 -167 188 -197q81 -13 280 -13q273 0 352 41q94 49 107 211q6 74 7 226q-64 -110 -216 -141q-74 -16 -269 -16q-393 0 -502 96q-119 104 -119 403
q0 298 119 402q110 96 503 96q195 0 269 -16q151 -31 215 -142v144h146zM762 860q-249 0 -320 -23q-105 -34 -140 -142q-21 -67 -21 -210q0 -233 76 -305q56 -53 192 -66q47 -5 209 -5q243 0 316 24q104 34 139 140q22 67 22 207q0 239 -76 310q-55 51 -191 65q-51 5 -206 5
zM426 1365h127q35 -138 223 -138t223 138h127q-40 -267 -350 -267t-350 267z" />
    <glyph glyph-name="Gcommaaccent" unicode="&#x122;" horiz-adv-x="2011" 
d="M978 674h891q-1 -218 -9 -309q-28 -316 -286 -359q-126 -21 -537 -21q-370 0 -405 3q-274 20 -373 122q-82 84 -102 273q-7 65 -7 300q0 234 7 299q20 189 102 273q100 104 397 124q19 1 430 1q265 0 322 -4q214 -14 307 -77q131 -88 140 -335h-162q-2 97 -12 135.5
t-39 66.5q-63 59 -241 71h-258q-339 0 -368 -1q-288 -11 -358 -61q-74 -53 -91 -232q-5 -48 -5 -260q0 -187 5 -244q13 -172 66 -227q63 -66 278 -81q44 -3 298 -3q365 0 347 -1q259 13 326 86q47 52 61 154q4 31 7 170h-731v137zM917 -109h181v-140q0 -178 -175 -178h-11
v89q81 0 78 89h-73v140z" />
    <glyph glyph-name="gcommaaccent" unicode="&#x123;" horiz-adv-x="1552" 
d="M1389 969v-874q0 -273 -54 -375q-66 -125 -252 -161q-88 -17 -314 -17q-381 0 -492 84q-117 89 -117 249v20h149v-20q0 -167 188 -197q81 -13 280 -13q273 0 352 41q94 49 107 211q6 74 7 226q-64 -110 -216 -141q-74 -16 -269 -16q-393 0 -502 96q-119 104 -119 403
q0 298 119 402q110 96 503 96q195 0 269 -16q151 -31 215 -142v144h146zM762 860q-249 0 -320 -23q-105 -34 -140 -142q-21 -67 -21 -210q0 -233 76 -305q56 -53 192 -66q47 -5 209 -5q243 0 316 24q104 34 139 140q22 67 22 207q0 239 -76 310q-55 51 -191 65q-51 5 -206 5
zM856 1106h-166v140q0 173 186 177v-88q-81 0 -78 -89h58v-140z" />
    <glyph glyph-name="Imacron" unicode="&#x12a;" horiz-adv-x="546" 
d="M191 0v1365h164v-1365h-164zM-10 1650h566v-114h-566v114z" />
    <glyph glyph-name="imacron" unicode="&#x12b;" horiz-adv-x="474" 
d="M164 0v969h146v-969h-146zM-19 1268h511v-104h-511v104z" />
    <glyph glyph-name="Iogonek" unicode="&#x12e;" horiz-adv-x="546" 
d="M192 0v1365h164v-1365q-30 -52 -30 -105q0 -107 143 -131l-52 -130q-148 34 -199 113q-28 43 -28 89q0 82 75 164h-73z" />
    <glyph glyph-name="iogonek" unicode="&#x12f;" horiz-adv-x="474" 
d="M164 0v969h146v-969q-27 -54 -27 -106q0 -106 129 -130l-47 -130q-204 54 -204 203q0 80 67 163h-64zM164 1200v179h146v-179h-146z" />
    <glyph glyph-name="Idotaccent" unicode="&#x130;" horiz-adv-x="546" 
d="M191 0v1365h164v-1365h-164zM129 1526v142h288v-142h-288z" />
    <glyph glyph-name="dotlessi" unicode="&#x131;" horiz-adv-x="474" 
d="M164 0v969h146v-969h-146z" />
    <glyph glyph-name="Kcommaaccent" unicode="&#x136;" horiz-adv-x="1783" 
d="M191 0v1365h164v-595h247l894 595h276l-997 -662l1049 -703h-276l-949 640h-244v-640h-164zM803 -109h181v-140q0 -178 -175 -178h-11v89q81 0 78 89h-73v140z" />
    <glyph glyph-name="kcommaaccent" unicode="&#x137;" horiz-adv-x="1288" 
d="M164 0v1379h146v-799h85l610 389h243l-707 -451l774 -518h-238l-682 457h-85v-457h-146zM571 -109h166v-140q0 -178 -175 -178h-11v89q81 0 78 89h-58v140z" />
    <glyph glyph-name="Lacute" unicode="&#x139;" horiz-adv-x="1479" 
d="M191 0v1365h164v-1228h1083v-137h-1247zM176 1494l-30 90l513 159l54 -145z" />
    <glyph glyph-name="lacute" unicode="&#x13a;" horiz-adv-x="474" 
d="M164 0v1379h146v-1379h-146zM137 1494l-22 81l378 173l48 -133z" />
    <glyph glyph-name="Lcommaaccent" unicode="&#x13b;" horiz-adv-x="1479" 
d="M191 0v1365h164v-1228h1083v-137h-1247zM723 -109h181v-140q0 -178 -175 -178h-11v89q81 0 78 89h-73v140z" />
    <glyph glyph-name="lcommaaccent" unicode="&#x13c;" horiz-adv-x="474" 
d="M164 0v1379h146v-1379h-146zM154 -109h166v-140q0 -178 -175 -178h-11v89q81 0 78 89h-58v140z" />
    <glyph glyph-name="Lcaron" unicode="&#x13d;" horiz-adv-x="1479" 
d="M191 0v1365h164v-1228h1083v-137h-1247zM678 1365h181v-147q0 -127 -57 -170q-47 -35 -118 -35h-11v88q78 4 78 87v30h-73v147z" />
    <glyph glyph-name="lcaron" unicode="&#x13e;" horiz-adv-x="592" 
d="M164 0v1379h146v-1379h-146zM426 1379h166v-140q0 -205 -175 -205h-11v88q78 4 78 93v24h-58v140z" />
    <glyph glyph-name="Lslash" unicode="&#x141;" horiz-adv-x="1479" 
d="M0 318v142l191 121v784h164v-703l627 388v-142l-627 -388v-383h1083v-137h-1247v439z" />
    <glyph glyph-name="lslash" unicode="&#x142;" horiz-adv-x="527" 
d="M0 458v137l191 137v647h146v-573l190 136v-136l-190 -137v-669h-146v595z" />
    <glyph glyph-name="Nacute" unicode="&#x143;" horiz-adv-x="2101" 
d="M191 0v1365h264l1290 -1248v1248h164v-1365h-264l-1290 1248v-1248h-164zM926 1494l-30 90l513 159l54 -145z" />
    <glyph glyph-name="nacute" unicode="&#x144;" horiz-adv-x="1493" 
d="M164 0v969h146v-192q54 152 211 196q82 23 306 23q157 0 235 -16q154 -32 214 -123q53 -81 53 -247v-610h-146v603q0 140 -54 188q-76 68 -342 68q-219 0 -319 -41q-158 -65 -158 -249v-569h-146zM638 1111l-22 81l405 173l48 -136z" />
    <glyph glyph-name="Ncommaaccent" unicode="&#x145;" horiz-adv-x="2101" 
d="M191 0v1365h264l1290 -1248v1248h164v-1365h-264l-1290 1248v-1248h-164zM935 -109h181v-140q0 -178 -175 -178h-11v89q81 0 78 89h-73v140z" />
    <glyph glyph-name="ncommaaccent" unicode="&#x146;" horiz-adv-x="1493" 
d="M164 0v969h146v-192q54 152 211 196q82 23 306 23q157 0 235 -16q154 -32 214 -123q53 -81 53 -247v-610h-146v603q0 140 -54 188q-76 68 -342 68q-219 0 -319 -41q-158 -65 -158 -249v-569h-146zM664 -109h166v-140q0 -178 -175 -178h-11v89q81 0 78 89h-58v140z" />
    <glyph glyph-name="Ncaron" unicode="&#x147;" horiz-adv-x="2101" 
d="M191 0v1365h264l1290 -1248v1248h164v-1365h-264l-1290 1248v-1248h-164zM1084 1494l-398 162l27 86l371 -93l371 93l27 -86z" />
    <glyph glyph-name="ncaron" unicode="&#x148;" horiz-adv-x="1493" 
d="M164 0v969h146v-192q54 152 211 196q82 23 306 23q157 0 235 -16q154 -32 214 -123q53 -81 53 -247v-610h-146v603q0 140 -54 188q-76 68 -342 68q-219 0 -319 -41q-158 -65 -158 -249v-569h-146zM747 1104l-333 186l20 81l313 -112l313 112l20 -81z" />
    <glyph glyph-name="Omacron" unicode="&#x14c;" horiz-adv-x="2058" 
d="M1038 1380q353 0 396 -3q267 -21 365 -122q82 -84 102 -273q7 -65 7 -299q0 -235 -7 -300q-20 -189 -102 -273q-99 -101 -369 -122q-37 -3 -401 -3t-401 3q-270 21 -369 122q-82 84 -102 273q-7 65 -7 299q0 235 7 300q20 189 102 273q99 102 374 122q34 3 405 3z
M1038 1237q-293 0 -333 -2q-250 -15 -313 -82q-53 -56 -66 -228q-5 -56 -5 -243q0 -186 5 -243q13 -171 66 -227q66 -70 308 -83q11 -1 329 -1t329 1q242 13 308 83q53 56 66 227q5 57 5 243q0 189 -4 243q-14 171 -67 228q-62 66 -304 81q-47 3 -324 3zM623 1650h811v-114
h-811v114z" />
    <glyph glyph-name="omacron" unicode="&#x14d;" horiz-adv-x="1533" 
d="M766 983q402 0 512 -96q119 -104 119 -409q0 -292 -119 -396q-109 -96 -511 -96q-401 0 -511 96q-119 104 -119 402t119 403q108 96 510 96zM770 860q-161 0 -222 -7q-148 -18 -198 -80q-60 -74 -60 -289q0 -234 75 -304.5t402 -70.5q158 0 220 7q147 18 197 80
q60 74 60 284q0 239 -75 309.5t-399 70.5zM388 1268h757v-104h-757v104z" />
    <glyph glyph-name="Ohungarumlaut" unicode="&#x150;" horiz-adv-x="2058" 
d="M1038 1380q353 0 396 -3q267 -21 365 -122q82 -84 102 -273q7 -65 7 -299q0 -235 -7 -300q-20 -189 -102 -273q-99 -101 -369 -122q-37 -3 -401 -3t-401 3q-270 21 -369 122q-82 84 -102 273q-7 65 -7 299q0 235 7 300q20 189 102 273q99 102 374 122q34 3 405 3z
M1038 1237q-293 0 -333 -2q-250 -15 -313 -82q-53 -56 -66 -228q-5 -56 -5 -243q0 -186 5 -243q13 -171 66 -227q66 -70 308 -83q11 -1 329 -1t329 1q242 13 308 83q53 56 66 227q5 57 5 243q0 189 -4 243q-14 171 -67 228q-62 66 -304 81q-47 3 -324 3zM1158 1494l-38 64
l356 205l67 -109zM749 1494l-39 64l357 205l66 -109z" />
    <glyph glyph-name="ohungarumlaut" unicode="&#x151;" horiz-adv-x="1533" 
d="M766 983q402 0 512 -96q119 -104 119 -409q0 -292 -119 -396q-109 -96 -511 -96q-401 0 -511 96q-119 104 -119 402t119 403q108 96 510 96zM770 860q-161 0 -222 -7q-148 -18 -198 -80q-60 -74 -60 -289q0 -234 75 -304.5t402 -70.5q158 0 220 7q147 18 197 80
q60 74 60 284q0 239 -75 309.5t-399 70.5zM887 1111l-41 71l316 204l58 -106zM532 1111l-41 71l316 204l58 -106z" />
    <glyph glyph-name="OE" unicode="&#x152;" horiz-adv-x="3151" 
d="M1692 1365h1333v-137h-1169v-455h1125v-130h-1125v-506h1179v-137h-1343v149q-81 -134 -284 -154q-108 -10 -394 -10q-349 0 -393 4q-265 21 -362 121q-82 85 -102 273q-7 65 -7 300q0 234 7 299q20 189 102 273q97 100 362 121q45 4 394 4q240 0 286 -2q198 -10 279 -52
q65 -34 112 -110v149zM1029 1236q-310 0 -328 -1q-245 -13 -309 -80q-53 -55 -66 -228q-5 -58 -5 -244q0 -187 5 -244q13 -174 66 -229q66 -69 307 -81q-9 0 326 0q263 0 357.5 4.5t142.5 18.5q132 38 161 226q6 40 6 305q0 188 -4 243q-13 172 -63 229q-59 67 -288 80
q-12 1 -308 1z" />
    <glyph glyph-name="oe" unicode="&#x153;" horiz-adv-x="2593" 
d="M1317 164q-65 -125 -245 -161q-85 -17 -308 -17q-398 0 -508 96q-119 104 -119 403q0 297 119 402q108 96 508 96q223 0 309 -17q180 -36 244 -162q62 124 237 161q87 18 300 18q197 0 287 -15q176 -30 247 -127q78 -106 76 -384h-1074q1 -112 7 -147q23 -135 146 -176
q74 -25 318 -25q212 0 273 13q160 35 178 168h149q-17 -229 -260 -279q-117 -25 -345 -25q-213 0 -301 18q-176 37 -238 160zM770 860q-161 0 -222 -7q-148 -18 -198 -80q-60 -74 -60 -288q0 -235 75 -305.5t402 -70.5q158 0 220 8q147 17 197 79q60 74 60 285
q0 238 -75 308.5t-399 70.5zM2310 576q-2 104 -29 156q-49 94 -192 119q-54 9 -238 9q-271 0 -354 -45q-102 -55 -107 -239h920z" />
    <glyph glyph-name="Racute" unicode="&#x154;" horiz-adv-x="1938" 
d="M191 0v1365h1126q192 0 275 -37q110 -49 152 -157q31 -80 31 -222q0 -228 -109 -291q-59 -34 -198 -48q200 -21 254 -123q27 -52 27 -132v-355h-164v260q0 177 -54 230q-61 60 -238 60h-938v-550h-164zM355 680h899q192 0 260 43q90 57 90 233q0 180 -101 234
q-71 38 -259 38h-889v-548zM776 1494l-30 90l513 159l54 -145z" />
    <glyph glyph-name="racute" unicode="&#x155;" horiz-adv-x="1224" 
d="M164 0v969h146v-190q46 139 174 180q74 24 266 24q237 0 327 -67q106 -79 106 -304v-58h-146v51q0 175 -88 221q-65 34 -238 34q-193 0 -281 -49q-120 -66 -120 -240v-571h-146zM544 1111l-22 81l405 173l48 -136z" />
    <glyph glyph-name="Rcommaaccent" unicode="&#x156;" horiz-adv-x="1938" 
d="M191 0v1365h1126q192 0 275 -37q110 -49 152 -157q31 -80 31 -222q0 -228 -109 -291q-59 -34 -198 -48q200 -21 254 -123q27 -52 27 -132v-355h-164v260q0 177 -54 230q-61 60 -238 60h-938v-550h-164zM355 680h899q192 0 260 43q90 57 90 233q0 180 -101 234
q-71 38 -259 38h-889v-548zM874 -109h181v-140q0 -178 -175 -178h-11v89q81 0 78 89h-73v140z" />
    <glyph glyph-name="rcommaaccent" unicode="&#x157;" horiz-adv-x="1224" 
d="M164 0v969h146v-190q46 139 174 180q74 24 266 24q237 0 327 -67q106 -79 106 -304v-58h-146v51q0 175 -88 221q-65 34 -238 34q-193 0 -281 -49q-120 -66 -120 -240v-571h-146zM156 -109h166v-140q0 -178 -175 -178h-11v89q81 0 78 89h-58v140z" />
    <glyph glyph-name="Rcaron" unicode="&#x158;" horiz-adv-x="1938" 
d="M191 0v1365h1126q192 0 275 -37q110 -49 152 -157q31 -80 31 -222q0 -228 -109 -291q-59 -34 -198 -48q200 -21 254 -123q27 -52 27 -132v-355h-164v260q0 177 -54 230q-61 60 -238 60h-938v-550h-164zM355 680h899q192 0 260 43q90 57 90 233q0 180 -101 234
q-71 38 -259 38h-889v-548zM942 1494l-398 162l27 86l371 -93l371 93l27 -86z" />
    <glyph glyph-name="rcaron" unicode="&#x159;" horiz-adv-x="1224" 
d="M164 0v969h146v-190q46 139 174 180q74 24 266 24q237 0 327 -67q106 -79 106 -304v-58h-146v51q0 175 -88 221q-65 34 -238 34q-193 0 -281 -49q-120 -66 -120 -240v-571h-146zM667 1104l-333 186l20 81l313 -112l313 112l20 -81z" />
    <glyph glyph-name="Sacute" unicode="&#x15a;" horiz-adv-x="1831" 
d="M137 425h164v-36q0 -91 18 -135q25 -63 98 -87q117 -39 477 -39q404 0 525 54q105 47 105 213q0 158 -127 194q-104 30 -354 32q-176 -2 -353 -3q-151 1 -226 10q-138 16 -212 66q-115 78 -115 268q0 212 110 302q97 79 340 104q118 12 363 12q441 0 572 -81
q83 -51 113 -140q21 -59 25 -183h-160q-5 146 -66 192q-91 69 -483 69q-374 0 -513 -44q-130 -41 -130 -218q0 -136 84 -175q67 -31 258 -37q29 -1 262 -1q348 0 458 -14q177 -23 250 -101q75 -82 75 -258q0 -168 -69 -257q-71 -93 -231 -122q-139 -25 -470 -25
q-448 0 -597 52q-191 66 -191 294v94zM764 1494l-30 90l513 159l54 -145z" />
    <glyph glyph-name="sacute" unicode="&#x15b;" horiz-adv-x="1461" 
d="M1159 695v22q0 81 -49 107q-71 37 -351 37q-360 0 -181 3q-127 -2 -195 -33q-92 -40 -92 -134q0 -90 67 -117q48 -19 372 -21q127 -1 254 -1q171 -8 248 -47q107 -54 107 -231q0 -197 -132 -250q-85 -34 -238 -42q-45 -2 -243 -2q-200 0 -256 4q-176 11 -246 56
q-65 41 -86 112q-15 47 -15 144v25h150v-24q0 -119 50 -150q72 -44 442 -44q430 0 173 -4q113 2 171 32q77 41 77 137q0 79 -33.5 113.5t-110.5 40.5q-66 5 -319 7h-252q-175 6 -244 48q-89 54 -89 214q0 175 111.5 230.5t459.5 55.5q206 0 266 -4q177 -14 252 -67
q79 -56 79 -201v-16h-147zM595 1111l-22 81l405 173l48 -136z" />
    <glyph glyph-name="Scedilla" unicode="&#x15e;" horiz-adv-x="1831" 
d="M137 425h164v-36q0 -91 18 -135q25 -63 98 -87q117 -39 477 -39q404 0 525 54q105 47 105 213q0 158 -127 194q-104 30 -354 32q-176 -2 -353 -3q-151 1 -226 10q-138 16 -212 66q-115 78 -115 268q0 212 110 302q97 79 340 104q118 12 363 12q441 0 572 -81
q83 -51 113 -140q21 -59 25 -183h-160q-5 146 -66 192q-91 69 -483 69q-374 0 -513 -44q-130 -41 -130 -218q0 -136 84 -175q67 -31 258 -37q29 -1 262 -1q348 0 458 -14q177 -23 250 -101q75 -82 75 -258q0 -168 -69 -257q-71 -93 -231 -122q-139 -25 -470 -25
q-448 0 -597 52q-191 66 -191 294v94zM721 -364l-55 93l311 175l73 -123z" />
    <glyph glyph-name="scedilla" unicode="&#x15f;" horiz-adv-x="1461" 
d="M1159 695v22q0 81 -49 107q-71 37 -351 37q-360 0 -181 3q-127 -2 -195 -33q-92 -40 -92 -134q0 -90 67 -117q48 -19 372 -21q127 -1 254 -1q171 -8 248 -47q107 -54 107 -231q0 -197 -132 -250q-85 -34 -238 -42q-45 -2 -243 -2q-200 0 -256 4q-176 11 -246 56
q-65 41 -86 112q-15 47 -15 144v25h150v-24q0 -119 50 -150q72 -44 442 -44q430 0 173 -4q113 2 171 32q77 41 77 137q0 79 -33.5 113.5t-110.5 40.5q-66 5 -319 7h-252q-175 6 -244 48q-89 54 -89 214q0 175 111.5 230.5t459.5 55.5q206 0 266 -4q177 -14 252 -67
q79 -56 79 -201v-16h-147zM556 -351l-55 87l304 175l73 -123z" />
    <glyph glyph-name="Scaron" unicode="&#x160;" horiz-adv-x="1831" 
d="M137 425h164v-36q0 -91 18 -135q25 -63 98 -87q117 -39 477 -39q404 0 525 54q105 47 105 213q0 158 -127 194q-104 30 -354 32q-176 -2 -353 -3q-151 1 -226 10q-138 16 -212 66q-115 78 -115 268q0 212 110 302q97 79 340 104q118 12 363 12q441 0 572 -81
q83 -51 113 -140q21 -59 25 -183h-160q-5 146 -66 192q-91 69 -483 69q-374 0 -513 -44q-130 -41 -130 -218q0 -136 84 -175q67 -31 258 -37q29 -1 262 -1q348 0 458 -14q177 -23 250 -101q75 -82 75 -258q0 -168 -69 -257q-71 -93 -231 -122q-139 -25 -470 -25
q-448 0 -597 52q-191 66 -191 294v94zM916 1494l-398 162l27 86l371 -93l371 93l27 -86z" />
    <glyph glyph-name="scaron" unicode="&#x161;" horiz-adv-x="1461" 
d="M1159 695v22q0 81 -49 107q-71 37 -351 37q-360 0 -181 3q-127 -2 -195 -33q-92 -40 -92 -134q0 -90 67 -117q48 -19 372 -21q127 -1 254 -1q171 -8 248 -47q107 -54 107 -231q0 -197 -132 -250q-85 -34 -238 -42q-45 -2 -243 -2q-200 0 -256 4q-176 11 -246 56
q-65 41 -86 112q-15 47 -15 144v25h150v-24q0 -119 50 -150q72 -44 442 -44q430 0 173 -4q113 2 171 32q77 41 77 137q0 79 -33.5 113.5t-110.5 40.5q-66 5 -319 7h-252q-175 6 -244 48q-89 54 -89 214q0 175 111.5 230.5t459.5 55.5q206 0 266 -4q177 -14 252 -67
q79 -56 79 -201v-16h-147zM731 1104l-333 186l20 81l313 -112l313 112l20 -81z" />
    <glyph glyph-name="Tcommaaccent" unicode="&#x162;" horiz-adv-x="1523" 
d="M679 0v1228h-693v137h1550v-137h-693v-1228h-164zM670 -109h181v-140q0 -178 -175 -178h-11v89q81 0 78 89h-73v140z" />
    <glyph glyph-name="tcommaaccent" unicode="&#x163;" horiz-adv-x="1114" 
d="M-14 846v123h233l4 215h147l-4 -215h665v-123h-668l-8 -485q-2 -97 13 -142q24 -71 99 -92q62 -18 197 -18q186 0 232 73q25 40 25 205v33h131v-39q0 -122 -3 -153q-9 -95 -47 -142q-81 -100 -349 -100q-147 0 -220 15q-127 27 -183 110q-45 67 -42 250l9 485h-231z
M538 -109h166v-140q0 -178 -175 -178h-11v89q81 0 78 89h-58v140z" />
    <glyph glyph-name="Tcaron" unicode="&#x164;" horiz-adv-x="1523" 
d="M679 0v1228h-693v137h1550v-137h-693v-1228h-164zM761 1494l-398 162l27 86l371 -93l371 93l27 -86z" />
    <glyph glyph-name="tcaron" unicode="&#x165;" horiz-adv-x="1114" 
d="M-14 846v123h233l4 215h147l-4 -215h665v-123h-668l-8 -485q-2 -97 13 -142q24 -71 99 -92q62 -18 197 -18q186 0 232 73q25 40 25 205v33h131v-39q0 -122 -3 -153q-9 -95 -47 -142q-81 -100 -349 -100q-147 0 -220 15q-127 27 -183 110q-45 67 -42 250l9 485h-231z
M759 1434h166v-140q0 -205 -175 -205h-11v88q78 4 78 93v24h-58v140z" />
    <glyph glyph-name="Umacron" unicode="&#x16a;" horiz-adv-x="1964" 
d="M1622 1365h164v-927q0 -184 -21 -242q-51 -140 -235 -180q-144 -31 -549 -31q-439 0 -576 38q-174 48 -213 194q-15 56 -15 221v927h164v-898q0 -138 8 -173q22 -97 151 -138q96 -31 259 -33q-513 5 222 5q266 0 312 3q234 17 288 89q33 45 40 119q1 12 1 128v898z
M576 1650h811v-114h-811v114z" />
    <glyph glyph-name="umacron" unicode="&#x16b;" horiz-adv-x="1493" 
d="M1329 969v-969h-146v192q-54 -152 -211 -196q-82 -23 -306 -23q-155 0 -235 16q-155 31 -215 123q-52 81 -52 247v610h146v-603q0 -140 54 -188q76 -68 342 -68q219 0 320 41q157 65 157 249v569h146zM368 1268h757v-104h-757v104z" />
    <glyph glyph-name="Uring" unicode="&#x16e;" horiz-adv-x="1964" 
d="M1622 1365h164v-927q0 -184 -21 -242q-51 -140 -235 -180q-144 -31 -549 -31q-439 0 -576 38q-174 48 -213 194q-15 56 -15 221v927h164v-898q0 -138 8 -173q22 -97 151 -138q96 -31 259 -33q-513 5 222 5q266 0 312 3q234 17 288 89q33 45 40 119q1 12 1 128v898z
M983 1781q102 0 178 -29q107 -41 107 -127q0 -87 -108 -128q-76 -29 -181 -29q-122 0 -202.5 42.5t-80.5 113.5q0 85 108 127q78 30 179 30zM982 1697q-168 0 -168 -73q0 -72 166 -72q170 0 170 73q0 72 -168 72z" />
    <glyph glyph-name="uring" unicode="&#x16f;" horiz-adv-x="1493" 
d="M1329 969v-969h-146v192q-54 -152 -211 -196q-82 -23 -306 -23q-155 0 -235 16q-155 31 -215 123q-52 81 -52 247v610h146v-603q0 -140 54 -188q76 -68 342 -68q219 0 320 41q157 65 157 249v569h146zM746 1413q275 0 275 -155t-278 -155q-101 0 -172 29q-99 40 -99 126
q0 155 274 155zM746 1330q-156 0 -156 -72t155 -72q158 0 158 72t-157 72z" />
    <glyph glyph-name="Uhungarumlaut" unicode="&#x170;" horiz-adv-x="1964" 
d="M1622 1365h164v-927q0 -184 -21 -242q-51 -140 -235 -180q-144 -31 -549 -31q-439 0 -576 38q-174 48 -213 194q-15 56 -15 221v927h164v-898q0 -138 8 -173q22 -97 151 -138q96 -31 259 -33q-513 5 222 5q266 0 312 3q234 17 288 89q33 45 40 119q1 12 1 128v898z
M1104 1494l-38 64l356 205l67 -109zM695 1494l-39 64l357 205l66 -109z" />
    <glyph glyph-name="uhungarumlaut" unicode="&#x171;" horiz-adv-x="1493" 
d="M1329 969v-969h-146v192q-54 -152 -211 -196q-82 -23 -306 -23q-155 0 -235 16q-155 31 -215 123q-52 81 -52 247v610h146v-603q0 -140 54 -188q76 -68 342 -68q219 0 320 41q157 65 157 249v569h146zM874 1111l-41 71l316 204l58 -106zM519 1111l-41 71l316 204l58 -106
z" />
    <glyph glyph-name="Uogonek" unicode="&#x172;" horiz-adv-x="1964" 
d="M1786 1365v-927q0 -167 -15 -220q-26 -89 -130 -168q-88 -67 -88 -147q0 -115 146 -139l-52 -130q-148 34 -200 114q-28 42 -28 89q0 88 87 174q-171 -26 -511 -26q-453 0 -590 38q-174 48 -213 194q-15 56 -15 221v927h164v-898q0 -138 8 -173q22 -97 151 -138
q96 -31 259 -33q-513 5 222 5q266 0 312 3q234 17 288 89q33 45 40 119q1 12 1 128v898h164z" />
    <glyph glyph-name="uogonek" unicode="&#x173;" horiz-adv-x="1493" 
d="M1183 969h146v-969q-27 -51 -27 -105q0 -107 129 -131l-47 -130q-204 54 -204 203q0 81 67 163h-64v192q-54 -152 -211 -196q-82 -23 -306 -23q-155 0 -235 16q-155 31 -215 123q-52 81 -52 247v610h146v-603q0 -139 54 -188q75 -68 342 -68q219 0 320 41q157 65 157 249
v569z" />
    <glyph glyph-name="Ydieresis" unicode="&#x178;" horiz-adv-x="1666" 
d="M833 709l650 656h224l-792 -791v-574h-164v574l-792 791h224zM439 1526v142h287v-142h-287zM940 1526v142h288v-142h-288z" />
    <glyph glyph-name="Zacute" unicode="&#x179;" horiz-adv-x="1704" 
d="M55 0v137l1319 1091h-1263v137h1503v-137l-1318 -1091h1340v-137h-1581zM707 1494l-30 90l513 159l54 -145z" />
    <glyph glyph-name="zacute" unicode="&#x17a;" horiz-adv-x="1245" 
d="M68 0v123l880 723h-841v123h1051v-123l-882 -723h886v-123h-1094zM513 1111l-22 81l405 173l48 -136z" />
    <glyph glyph-name="Zdotaccent" unicode="&#x17b;" horiz-adv-x="1704" 
d="M55 0v137l1319 1091h-1263v137h1503v-137l-1318 -1091h1340v-137h-1581zM718 1526v142h288v-142h-288z" />
    <glyph glyph-name="zdotaccent" unicode="&#x17c;" horiz-adv-x="1245" 
d="M68 0v123l880 723h-841v123h1051v-123l-882 -723h886v-123h-1094zM492 1149v131h279v-131h-279z" />
    <glyph glyph-name="Zcaron" unicode="&#x17d;" horiz-adv-x="1704" 
d="M55 0v137l1319 1091h-1263v137h1503v-137l-1318 -1091h1340v-137h-1581zM862 1494l-398 162l27 86l371 -93l371 93l27 -86z" />
    <glyph glyph-name="zcaron" unicode="&#x17e;" horiz-adv-x="1245" 
d="M68 0v123l880 723h-841v123h1051v-123l-882 -723h886v-123h-1094zM632 1104l-333 186l20 81l313 -112l313 112l20 -81z" />
    <glyph glyph-name="florin" unicode="&#x192;" horiz-adv-x="1857" 
d="M886 969l20 75q62 232 224 302q105 45 343 45h24l-33 -123h-25q-168 0 -241 -33q-101 -45 -139 -185l-22 -81h353l-33 -123h-352l-241 -895q-37 -138 -85 -197q-83 -103 -280 -103q-12 0 -39 1l33 122q24 -1 36 -1q91 0 135 60q28 38 57 147l232 866h-212l33 123h212z
" />
    <glyph glyph-name="circumflex" unicode="&#x2c6;" 
d="M512 1371l333 -186l-20 -81l-313 112l-313 -112l-20 81z" />
    <glyph glyph-name="caron" unicode="&#x2c7;" 
d="M512 1104l-333 186l20 81l313 -112l313 112l20 -81z" />
    <glyph glyph-name="macron" unicode="&#x2c9;" 
d="M134 1268h757v-104h-757v104z" />
    <glyph glyph-name="breve" unicode="&#x2d8;" 
d="M162 1365h127q35 -138 223 -138t223 138h127q-40 -267 -350 -267t-350 267z" />
    <glyph glyph-name="dotaccent" unicode="&#x2d9;" 
d="M373 1149v131h279v-131h-279z" />
    <glyph glyph-name="ring" unicode="&#x2da;" 
d="M512 1413q275 0 275 -155t-278 -155q-101 0 -172 29q-99 40 -99 126q0 155 274 155zM512 1330q-156 0 -156 -72t155 -72q158 0 158 72t-157 72z" />
    <glyph glyph-name="ogonek" unicode="&#x2db;" 
d="M657 0h82q-27 -52 -27 -108q0 -104 129 -128l-47 -130q-204 54 -204 203q0 81 67 163z" />
    <glyph glyph-name="tilde" unicode="&#x2dc;" 
d="M724 1315h145q-12 -71 -46 -119q-56 -78 -151 -78q-55 0 -202 61q-53 22 -88 22q-62 0 -82 -69h-146q36 197 197 197q54 0 202 -61q53 -22 88 -22q62 0 83 69z" />
    <glyph glyph-name="hungarumlaut" unicode="&#x2dd;" 
d="M660 1111l-41 71l316 204l58 -106zM305 1111l-41 71l316 204l58 -106z" />
    <glyph glyph-name="Delta" unicode="&#x394;" horiz-adv-x="1365" 
d="M57 0l545 1365h157l550 -1365h-1252zM268 137h828l-414 1049z" />
    <glyph glyph-name="Delta" unicode="&#x2206;" horiz-adv-x="1365" 
d="M57 0l545 1365h157l550 -1365h-1252zM268 137h828l-414 1049z" />
    <glyph glyph-name="Omega" unicode="&#x3a9;" horiz-adv-x="1365" 
d="M58 0v132h369q-369 217 -369 612q0 306 220 501q173 153 405 153t404 -153q220 -195 220 -502q0 -395 -368 -611h368v-132h-534v119q143 81 222 171q162 184 162 437q0 244 -163 406q-134 133 -308 133q-171 0 -302 -116q-176 -155 -176 -423q0 -392 385 -608v-119h-535z
" />
    <glyph glyph-name="Omega" unicode="&#x2126;" horiz-adv-x="1365" 
d="M58 0v132h369q-369 217 -369 612q0 306 220 501q173 153 405 153t404 -153q220 -195 220 -502q0 -395 -368 -611h368v-132h-534v119q143 81 222 171q162 184 162 437q0 244 -163 406q-134 133 -308 133q-171 0 -302 -116q-176 -155 -176 -423q0 -392 385 -608v-119h-535z
" />
    <glyph glyph-name="pi" unicode="&#x3c0;" horiz-adv-x="1185" 
d="M209 0v849h-152v132h1072v-132h-150v-849h-147v849h-476v-849h-147z" />
    <glyph glyph-name="endash" unicode="&#x2013;" horiz-adv-x="1857" 
d="M137 601h1584v-124h-1584v124z" />
    <glyph glyph-name="emdash" unicode="&#x2014;" horiz-adv-x="2046" 
d="M0 594h2046v-110h-2046v110z" />
    <glyph glyph-name="quoteleft" unicode="&#x2018;" horiz-adv-x="590" 
d="M399 930h-208v229q0 221 233 221v-110q-102 0 -98 -111h73v-229z" />
    <glyph glyph-name="quoteright" unicode="&#x2019;" horiz-adv-x="590" 
d="M191 1379h208v-229q0 -222 -219 -222h-14v110q102 0 98 112h-73v229z" />
    <glyph glyph-name="quotesinglbase" unicode="&#x201a;" horiz-adv-x="590" 
d="M191 229h208v-229q0 -222 -219 -222h-14v110q102 0 98 112h-73v229z" />
    <glyph glyph-name="quotedblleft" unicode="&#x201c;" horiz-adv-x="989" 
d="M399 930h-208v229q0 221 233 221v-110q-102 0 -98 -111h73v-229zM798 915h-208v229q0 221 233 221v-110q-102 0 -98 -111h73v-229z" />
    <glyph glyph-name="quotedblright" unicode="&#x201d;" horiz-adv-x="989" 
d="M590 1365h208v-229q0 -222 -219 -222h-14v110q102 0 98 112h-73v229zM191 1365h208v-229q0 -222 -219 -222h-14v110q102 0 98 112h-73v229z" />
    <glyph glyph-name="quotedblbase" unicode="&#x201e;" horiz-adv-x="989" 
d="M590 229h208v-229q0 -222 -219 -222h-14v110q102 1 98 112h-73v229zM191 229h208v-229q0 -222 -219 -222h-14v110q102 0 98 112h-73v229z" />
    <glyph glyph-name="dagger" unicode="&#x2020;" horiz-adv-x="1615" 
d="M837 1406l69 -348l-55 -130l143 55l485 -69v-50l-471 -68l-157 54l55 -143l-69 -1119h-58l-69 1119l55 143l-157 -54l-471 68v50l471 69l157 -55l-55 143l69 335h58z" />
    <glyph glyph-name="daggerdbl" unicode="&#x2021;" horiz-adv-x="1615" 
d="M837 1406l69 -348l-55 -130l143 55l485 -68v-51l-471 -68l-157 54l85 -367l-85 -367l157 55l471 -68v-51l-471 -68l-157 55l55 -144l-69 -375h-58l-69 389l55 130l-143 -55l-485 68v51l471 68l157 -55l-85 367l85 367l-157 -54l-471 68v51l471 68l157 -55l-55 143l69 335
h58z" />
    <glyph glyph-name="bullet" unicode="&#x2022;" horiz-adv-x="1365" 
d="M689 978q116 0 198 -84t82 -200q0 -119 -82.5 -201.5t-201.5 -82.5q-118 0 -201 83t-83 201q0 121 83.5 202.5t204.5 81.5z" />
    <glyph glyph-name="ellipsis" unicode="&#x2026;" horiz-adv-x="1770" 
d="M191 0v229h208v-229h-208zM781 0v229h208v-229h-208zM1371 0v229h208v-229h-208z" />
    <glyph glyph-name="perthousand" unicode="&#x2030;" horiz-adv-x="4172" 
d="M767 -10l1199 1385h203l-1199 -1385h-203zM687 1418q325 0 427 -81q82 -65 108 -185q15 -71 15 -220q0 -143 -16 -214q-26 -115 -107 -179q-104 -82 -427 -82q-322 0 -427 82q-82 64 -108 182q-15 70 -15 217q0 146 16 217q26 119 107 182q104 81 427 81zM687 1289
q-265 0 -332 -69t-67 -282q0 -224 78 -292q69 -60 321 -60q263 0 333 70q66 66 66 276q0 111 -8 159q-17 92 -70 138q-70 60 -321 60zM2257 926q326 0 428 -81q82 -65 108 -185q15 -71 15 -220q0 -143 -16 -214q-26 -115 -107 -179q-104 -82 -428 -82q-322 0 -427 82
q-82 64 -108 182q-15 70 -15 217q0 145 16 217q26 119 107 182q103 81 427 81zM2258 797q-126 0 -175 -6q-110 -14 -158 -64q-67 -69 -67 -281q0 -225 78 -292q70 -60 321 -60q263 0 333 70q67 67 67 276q0 111 -8 159q-17 92 -70 138q-70 60 -321 60zM3486 926
q325 0 427 -81q82 -65 108 -185q15 -71 15 -220q0 -143 -16 -214q-26 -115 -107 -179q-104 -82 -427 -82q-322 0 -427 82q-82 64 -108 182q-15 70 -15 217t16 217q26 118 107 182q102 81 427 81zM3486 797q-265 0 -332 -69t-67 -282q0 -108 9 -156q16 -91 69 -136
q71 -60 321 -60q264 0 333 70q66 67 66 276q0 111 -8 159q-17 92 -70 138q-70 60 -321 60z" />
    <glyph glyph-name="guilsinglleft" unicode="&#x2039;" horiz-adv-x="633" 
d="M102 509l305 521l109 -73l-260 -448l260 -448l-109 -73z" />
    <glyph glyph-name="guilsinglright" unicode="&#x203a;" horiz-adv-x="633" 
d="M530 509l-305 -521l-109 73l261 448l-261 448l109 73z" />
    <glyph glyph-name="fraction" unicode="&#x2044;" horiz-adv-x="273" 
d="M-526 -10l1199 1385h127l-1200 -1385h-126z" />
    <glyph glyph-name="franc" unicode="&#x20a3;" horiz-adv-x="1900" 
d="M191 0v1365h1030v-137h-872v-470h678v-130h-678v-628h-158zM1117 0v758h130v-83q44 64 132 83q48 10 161 10q173 0 240 -51q78 -59 78 -224v-54h-130v50q0 110 -54 142q-38 23 -161 23q-129 0 -187 -31q-79 -43 -79 -159v-464h-130z" />
    <glyph glyph-name="trademark" unicode="&#x2122;" horiz-adv-x="2486" 
d="M406 584v688h-423v93h962v-93h-423v-688h-116zM1037 584v781h173l499 -652l500 652h168v-781h-116v673l-513 -673h-82l-513 673v-673h-116z" />
    <glyph glyph-name="partialdiff" unicode="&#x2202;" 
d="M175 1242l19 130q176 -24 285 -71q253 -108 382 -364q100 -199 100 -436q0 -350 -252 -477q-91 -46 -195 -46q-152 0 -274 96q-66 52 -110 124q-67 110 -67 242q0 139 77 259q123 191 350 191q179 0 302 -152q-4 11 -13 34q-68 168 -161 261q-170 170 -443 209zM522 779
q-117 1 -204 -83q-106 -102 -106 -264q0 -152 102 -255q86 -86 199 -86t197 86q101 103 101 268q0 171 -105 263q-80 70 -184 71z" />
    <glyph glyph-name="product" unicode="&#x220f;" horiz-adv-x="1430" 
d="M75 1536h1280v-137h-163v-1774h163v-137h-478v137h168v1774h-661v-1774h167v-137h-476v137h162v1774h-162v137z" />
    <glyph glyph-name="summation" unicode="&#x2211;" horiz-adv-x="1365" 
d="M1224 1536v-467h-134l-13 329h-855l517 -845l-517 -928h874l8 326h139v-463h-1185v154l509 911l-509 832v151h1166z" />
    <glyph glyph-name="minus" unicode="&#x2212;" horiz-adv-x="1720" 
d="M1501 763v-121h-1283v121h1283z" />
    <glyph glyph-name="periodcentered" unicode="&#x2219;" horiz-adv-x="535" 
d="M164 382v229h208v-229h-208z" />
    <glyph glyph-name="radical" unicode="&#x221a;" horiz-adv-x="1365" 
d="M1365 1698v-137h-402l-444 -1561h-180l-169 613h-170v137h290l76 -266q10 -34 29 -132q7 -37 30 -151h11q2 12 40 176l50 217l311 1104h528z" />
    <glyph glyph-name="infinity" unicode="&#x221e;" horiz-adv-x="1365" 
d="M686 599q-152 -216 -338 -216q-156 0 -243 110q-67 84 -67 207q0 176 138 262q78 49 174 49q185 0 330 -215q146 215 340 215q159 0 246 -116q62 -82 62 -200q0 -136 -86 -224t-221 -88q-191 0 -335 216zM757 697q119 -188 247 -188q79 0 129 56q49 53 49 133
q0 95 -68 148q-50 39 -112 39q-102 0 -189 -108q-26 -33 -56 -80zM609 696q-118 189 -247 189q-80 0 -129 -54t-49 -134q0 -98 68 -150q51 -39 112 -39q102 0 189 109q28 36 56 79z" />
    <glyph glyph-name="integral" unicode="&#x222b;" 
d="M197 -490l32 130q53 -21 92 -21q96 0 111 92q6 37 6 155v1265q0 195 18 256q44 149 233 149q57 0 137 -22l-32 -131q-53 21 -92 21q-95 0 -111 -92q-6 -35 -6 -220v-1199q0 -131 -2 -156q-7 -99 -39 -148q-65 -99 -230 -99q-64 0 -117 20z" />
    <glyph glyph-name="approxequal" unicode="&#x2248;" 
d="M107 712l-87 56q36 76 75 128q80 106 205 106q76 0 230 -71q141 -65 198 -65q66 0 113 42q32 28 74 99l89 -53q-56 -111 -111 -159q-81 -70 -183 -70q-68 0 -286 99q-84 38 -135 38q-101 0 -182 -150zM107 372l-87 56q35 74 75 128q81 107 205 107q79 0 230 -71
q141 -66 199 -66q102 0 186 141l89 -53q-56 -111 -111 -159q-81 -70 -183 -70q-69 0 -286 99q-83 38 -135 38q-101 0 -182 -150z" />
    <glyph glyph-name="approxequal" unicode="&#x22f2;" 
d="M107 712l-87 56q36 76 75 128q80 106 205 106q76 0 230 -71q141 -65 198 -65q66 0 113 42q32 28 74 99l89 -53q-56 -111 -111 -159q-81 -70 -183 -70q-68 0 -286 99q-84 38 -135 38q-101 0 -182 -150zM107 372l-87 56q35 74 75 128q81 107 205 107q79 0 230 -71
q141 -66 199 -66q102 0 186 141l89 -53q-56 -111 -111 -159q-81 -70 -183 -70q-69 0 -286 99q-83 38 -135 38q-101 0 -182 -150z" />
    <glyph glyph-name="notequal" unicode="&#x2260;" horiz-adv-x="1720" 
d="M1025 867h459v-116h-526l-60 -105h586v-116h-653l-239 -414l-105 60l205 354h-455v116h522l60 105h-582v116h649l243 421l105 -60z" />
    <glyph glyph-name="lessequal" unicode="&#x2264;" 
d="M955 1246v-140l-730 -324l730 -322v-141l-887 398v127zM955 259v-137h-887v137h887z" />
    <glyph glyph-name="greaterequal" unicode="&#x2265;" 
d="M68 319v141l730 323l-730 323v140l887 -402v-128zM68 122v137h887v-137h-887z" />
    <glyph glyph-name="lozenge" unicode="&#x25ca;" horiz-adv-x="1365" 
d="M683 1419l531 -736l-531 -736l-532 736zM683 1238l-404 -555l404 -554l403 554z" />
    <glyph glyph-name="apple" unicode="&#xf000;" horiz-adv-x="1365" 
d="M984 1416v-21q0 -161 -127 -265q-84 -69 -177 -69q3 144 83 240.5t221 114.5zM1277 935q-64 -49 -98 -92q-67 -84 -67 -192q0 -218 203 -306q-59 -144 -133 -247q-109 -152 -214 -152q-41 0 -165 52q-17 7 -78 7q-71 0 -182 -45q-42 -17 -79 -17q-114 0 -226 167
q-172 257 -172 519q0 186 97 311q106 137 286 137q65 0 158 -36q67 -26 97 -26q34 0 89 21q118 45 188 45q189 0 296 -146z" />
    <glyph glyph-name="fi" unicode="&#xf001;" horiz-adv-x="1272" 
d="M1109 969v-969h-146v846h-605v-846h-146v846h-212v123h212v75q0 266 190 320q94 27 310 27h128v-123h-98q-240 0 -307 -39q-77 -45 -77 -179v-81h751zM963 1200v179h146v-179h-146z" />
    <glyph glyph-name="fl" unicode="&#xf002;" horiz-adv-x="1272" 
d="M0 969h212v75q0 266 190 320q94 27 310 27h397v-1391h-146v1268h-222q-240 0 -307 -39q-76 -44 -76 -179v-81h454v-123h-454v-846h-146v846h-212v123z" />
    <glyph glyph-name="glyph233" horiz-adv-x="512" 
 />
    <glyph glyph-name="glyph234" horiz-adv-x="512" 
 />
    <glyph glyph-name="glyph226" horiz-adv-x="512" 
 />
    <glyph glyph-name="glyph227" horiz-adv-x="512" 
 />
    <glyph glyph-name="glyph228" horiz-adv-x="512" 
 />
    <glyph glyph-name="glyph229" horiz-adv-x="512" 
 />
    <glyph glyph-name="glyph235" horiz-adv-x="512" 
 />
    <glyph glyph-name="glyph310" horiz-adv-x="512" 
 />
    <glyph glyph-name="glyph236" horiz-adv-x="512" 
 />
    <glyph glyph-name="glyph237" horiz-adv-x="512" 
 />
    <glyph glyph-name="glyph313" horiz-adv-x="512" 
 />
    <glyph glyph-name="glyph230" horiz-adv-x="512" 
 />
    <glyph glyph-name="glyph231" horiz-adv-x="512" 
 />
    <glyph glyph-name="glyph242" horiz-adv-x="512" 
 />
    <glyph glyph-name="glyph243" horiz-adv-x="512" 
 />
    <glyph glyph-name="glyph239" horiz-adv-x="512" 
 />
    <glyph glyph-name="glyph244" horiz-adv-x="512" 
 />
    <glyph glyph-name="glyph241" horiz-adv-x="512" 
 />
    <glyph glyph-name="glyph240" horiz-adv-x="512" 
 />
    <glyph glyph-name="glyph232" horiz-adv-x="512" 
 />
    <glyph glyph-name="glyph238" horiz-adv-x="512" 
 />
    <glyph glyph-name="glyph172" horiz-adv-x="1857" 
 />
    <glyph glyph-name="glyph245" horiz-adv-x="512" 
 />
    <glyph glyph-name="glyph246" horiz-adv-x="512" 
 />
    <glyph glyph-name="glyph247" horiz-adv-x="512" 
 />
    <glyph glyph-name="glyph248" horiz-adv-x="512" 
 />
    <glyph glyph-name="glyph249" horiz-adv-x="512" 
 />
    <glyph glyph-name="glyph250" horiz-adv-x="512" 
 />
    <glyph glyph-name="glyph251" horiz-adv-x="512" 
 />
    <glyph glyph-name="glyph252" horiz-adv-x="512" 
 />
    <glyph glyph-name="glyph253" horiz-adv-x="512" 
 />
    <glyph glyph-name="glyph254" horiz-adv-x="512" 
 />
    <glyph glyph-name="glyph255" horiz-adv-x="512" 
 />
    <glyph glyph-name="glyph256" horiz-adv-x="512" 
 />
    <glyph glyph-name="glyph257" horiz-adv-x="512" 
 />
    <glyph glyph-name="glyph359" 
d="M119 1498q5 67 31 113q61 109 193 109q60 0 178 -47q103 -41 152 -41q86 0 102 95h130q-5 -68 -30 -113q-60 -109 -193 -109q-61 0 -178 47q-102 41 -152 41q-87 0 -102 -95h-131z" />
    <glyph glyph-name="glyph360" 
d="M513 1781q102 0 178 -29q107 -41 107 -127q0 -87 -108 -128q-76 -29 -181 -29q-122 0 -202.5 42.5t-80.5 113.5q0 85 108 127q78 30 179 30zM512 1697q-168 0 -168 -73q0 -72 166 -72q170 0 170 73q0 72 -168 72z" />
    <glyph glyph-name="glyph361" 
d="M424 1365h181v-147q0 -127 -57 -170q-47 -35 -118 -35h-11v88q78 4 78 87v30h-73v147z" />
    <glyph glyph-name="glyph362" 
d="M344 -364l-55 93l311 175l73 -123z" />
    <glyph glyph-name="glyph363" 
d="M512 1494l-398 162l27 86l371 -93l371 93l27 -86z" />
    <glyph glyph-name="glyph364" 
d="M677 1494l-537 104l55 145l512 -159z" />
    <glyph glyph-name="glyph365" 
d="M346 1494l-30 90l513 159l54 -145z" />
    <glyph glyph-name="glyph366" 
d="M439 -109h166v-140q0 -178 -175 -178h-11v89q81 0 78 89h-58v140z" />
    <glyph glyph-name="glyph367" 
d="M701 1379h166v-140q0 -205 -175 -205h-11v88q78 4 78 93v24h-58v140z" />
    <glyph glyph-name="glyph368" 
d="M368 1526v142h288v-142h-288z" />
    <glyph glyph-name="glyph369" 
d="M240 1149v131h224v-131h-224zM559 1149v131h224v-131h-224z" />
    <glyph glyph-name="glyph370" 
d="M123 1742h129q41 -119 260 -119t260 119h129q-45 -243 -389 -243t-389 243z" />
    <glyph glyph-name="glyph371" 
d="M106 1650h811v-114h-811v114z" />
    <glyph glyph-name="glyph372" 
d="M662 1494l-38 64l356 205l67 -109zM253 1494l-39 64l357 205l66 -109z" />
    <glyph glyph-name="glyph373" 
d="M424 -109h181v-140q0 -178 -175 -178h-11v89q81 0 78 89h-73v140z" />
    <glyph glyph-name="glyph374" 
d="M118 1526v142h288v-142h-288zM619 1526v142h288v-142h-288z" />
    <glyph glyph-name="glyph375" 
d="M512 1742l398 -162l-27 -86l-371 93l-371 -93l-27 86z" />
    <glyph glyph-name="glyph376" 
d="M585 1106h-166v140q0 173 186 177v-88q-81 0 -78 -89h58v-140z" />
    <glyph glyph-name="glyph377" 
d="M224 1526v142h240v-142h-240zM559 1526v142h240v-142h-240z" />
    <glyph glyph-name="glyph378" horiz-adv-x="512" 
 />
    </font>
</defs>
</svg>
